<?xml version="1.0" encoding="UTF-8" standalone="no"?>
<!DOCTYPE svg PUBLIC "-//W3C//DTD SVG 1.1//EN" "http://www.w3.org/Graphics/SVG/1.1/DTD/svg11.dtd">
<svg width="100%" height="100%" viewBox="0 0 16000 10000" version="1.1" xmlns="http://www.w3.org/2000/svg" xmlns:xlink="http://www.w3.org/1999/xlink" xml:space="preserve" xmlns:serif="http://www.serif.com/" style="fill-rule:evenodd;clip-rule:evenodd;stroke-linecap:round;stroke-linejoin:round;">
    <path d="M3938.18,2580.26L3938.58,2202.19" style="fill:none;fill-rule:nonzero;stroke:rgb(35,31,32);stroke-width:26.04px;"/>
    <path d="M3913.59,1981.93L3913.99,1603.86" style="fill:none;fill-rule:nonzero;stroke:rgb(35,31,32);stroke-width:26.04px;"/>
    <path d="M4642.87,1821.11L3938.6,2202.19L3210.12,1926.28" style="fill:none;fill-rule:nonzero;stroke:rgb(35,31,32);stroke-width:26.04px;"/>
    <path d="M3938.58,2580.26L4642.74,2152.52L4642.86,1821.11L3910.22,1544.11L3210.12,1921.34L3210.12,2306.36L3938.58,2580.26Z" style="fill:none;fill-rule:nonzero;stroke:rgb(35,31,32);stroke-width:34.72px;"/>
    <path d="M4499.98,1824.96L3913.99,1603.02" style="fill:none;fill-rule:nonzero;stroke:rgb(35,31,32);stroke-width:26.04px;"/>
    <path d="M4044.16,2031.31L3913.79,1981.93" style="fill:none;fill-rule:nonzero;stroke:rgb(35,31,32);stroke-width:26.04px;"/>
    <path d="M3031.11,1141.48L3031.02,1145.91" style="fill:none;fill-rule:nonzero;stroke:rgb(35,31,32);stroke-width:43.4px;"/>
    <path d="M2942.08,910.165C2942.08,860.477 2982.36,820.148 3032.08,820.148C3081.78,820.148 3122.06,860.477 3122.06,910.165C3122.06,959.852 3081.78,1000.15 3032.08,1000.15L3031.56,1063.33" style="fill:none;fill-rule:nonzero;stroke:rgb(35,31,32);stroke-width:43.4px;"/>
    <path d="M3380.04,1064.58C3424.83,872.53 3305.27,680.25 3113.22,635.465C2921.17,590.679 2728.89,710.239 2684.1,902.288C2639.32,1094.34 2758.88,1286.62 2950.93,1331.4C3142.97,1376.19 3335.25,1256.63 3380.04,1064.58Z" style="fill:none;stroke:rgb(35,31,32);stroke-width:34.72px;stroke-linecap:butt;"/>
    <path d="M2452.52,650.957C2446.61,676.297 2462.38,701.664 2487.72,707.569C2513.05,713.475 2538.41,697.697 2544.32,672.357C2550.23,647.017 2534.45,621.65 2509.12,615.744C2483.79,609.839 2458.43,625.617 2452.52,650.957Z" style="fill:none;stroke:rgb(35,31,32);stroke-width:34.72px;stroke-linecap:butt;"/>
    <path d="M2173.91,618.277C2170.47,633.058 2179.68,647.848 2194.45,651.283C2209.23,654.718 2224.01,645.506 2227.45,630.725C2230.89,615.944 2221.68,601.155 2206.91,597.72C2192.13,594.284 2177.35,603.496 2173.91,618.277Z" style="fill:none;stroke:rgb(35,31,32);stroke-width:34.72px;stroke-linecap:butt;stroke-linejoin:miter;"/>
    <path d="M2139.1,1627.45C2129.47,1798.13 2104.07,2326.2 2095.05,2407.8L2263.38,2584.15L1392.74,2585.35C1392.74,2585.35 1454.89,1943.63 1454.89,1870.38" style="fill:none;fill-rule:nonzero;stroke:rgb(35,31,32);stroke-width:34.72px;"/>
    <path d="M1709.7,745.632C1709.7,760.372 1721.61,772.281 1736.3,772.281C1751.02,772.281 1762.88,760.372 1762.88,745.632C1762.88,730.962 1751.02,719.104 1736.3,719.104C1721.61,719.104 1709.7,730.962 1709.7,745.632" style="fill:rgb(35,31,32);fill-rule:nonzero;"/>
    <path d="M1820.05,710.155C1820.05,724.894 1831.96,736.786 1846.63,736.786C1861.35,736.786 1873.25,724.894 1873.25,710.155C1873.25,695.484 1861.35,683.575 1846.63,683.575C1831.96,683.575 1820.05,695.484 1820.05,710.155" style="fill:rgb(35,31,32);fill-rule:nonzero;"/>
    <path d="M1820.39,2049.01L1819.78,2581.56" style="fill:none;fill-rule:nonzero;stroke:rgb(35,31,32);stroke-width:34.72px;"/>
    <path d="M1882.61,939.444L1822.73,917.708L1779.14,969.41L1727.44,942.188L1659.4,963.976" style="fill:none;fill-rule:nonzero;stroke:rgb(35,31,32);stroke-width:34.72px;"/>
    <path d="M2127.33,1810.78C2544.31,1628.11 2116.24,1105.91 1851.81,1047.41L1898.65,739.421C1898.65,739.421 1952.56,745.046 1996.17,721.678C1907.54,531.122 1688.25,421.348 1548.53,508.952C1322.54,650.792 1535.23,959.559 1517.5,1074.79C598.216,1377.63 1056.83,1632.75 1317.23,1756.82C1317.23,1756.82 1381.64,1785.78 1271.24,1813.4C1271.24,1813.4 1275.94,1858.31 1328.79,1884.14C1392.23,1915.15 1434.07,1874.56 1434.07,1874.56C1502.9,1787.63 1430.39,1726.16 1430.39,1726.16" style="fill:none;fill-rule:nonzero;stroke:rgb(35,31,32);stroke-width:34.72px;"/>
    <path d="M3934.82,2127.5L4499.97,1824.96" style="fill:none;stroke:black;stroke-width:26.25px;stroke-miterlimit:1.5;"/>
    <path d="M3350.98,1905.25L3913.99,1603.86" style="fill:none;stroke:black;stroke-width:26.25px;stroke-miterlimit:1.5;"/>
    <path d="M3763.08,2060.27L3909.42,1981.93" style="fill:none;stroke:black;stroke-width:26.25px;stroke-miterlimit:1.5;"/>
    <path d="M3350.98,1905.25L3934.82,2126.38" style="fill:none;stroke:black;stroke-width:26.25px;stroke-miterlimit:1.5;"/>
    <g>
        <path d="M3461.23,1639.1L3663.25,1902.76L3570.64,1973.72L3368.62,1710.06L3461.23,1639.1Z" style="fill:white;"/>
        <path d="M3384.52,1634.89C3410.08,1615.31 3437.64,1608.3 3446.03,1619.26C3454.42,1630.21 3440.49,1655 3414.93,1674.58C3389.37,1694.16 3361.81,1701.16 3353.42,1690.21C3345.03,1679.26 3358.96,1654.47 3384.52,1634.89Z" style="fill:none;stroke:black;stroke-width:26.25px;stroke-miterlimit:1.5;"/>
        <path d="M3353.42,1690.22L3583.42,1990.39" style="fill:none;stroke:black;stroke-width:26.25px;stroke-miterlimit:1.5;"/>
        <path d="M3446.03,1619.26L3788.81,2066.62" style="fill:none;stroke:black;stroke-width:26.25px;stroke-miterlimit:1.5;"/>
    </g>
    <g>
        <path d="M3939.15,1478.33L3825.89,1790.58L3716.22,1750.8L3829.47,1438.55L3939.15,1478.33Z" style="fill:white;"/>
        <path d="M3901.36,1411.44C3931.63,1422.42 3952.38,1441.86 3947.67,1454.83C3942.97,1467.8 3914.58,1469.42 3884.31,1458.44C3854.05,1447.47 3833.29,1428.02 3838,1415.05C3842.7,1402.08 3871.09,1400.46 3901.36,1411.44Z" style="fill:none;stroke:black;stroke-width:26.25px;stroke-miterlimit:1.5;"/>
        <path d="M3837.99,1415.05L3663.71,1895.54" style="fill:none;stroke:black;stroke-width:26.25px;stroke-miterlimit:1.5;"/>
        <path d="M3947.67,1454.83L3746.44,2009.64" style="fill:none;stroke:black;stroke-width:26.25px;stroke-miterlimit:1.5;"/>
    </g>
    <g>
        <path d="M4482.72,1458.7L4162.57,1876.53L4255.18,1947.48L4575.33,1529.66L4482.72,1458.7Z" style="fill:white;"/>
        <path d="M4559.43,1454.49C4533.87,1434.91 4506.31,1427.9 4497.92,1438.86C4489.53,1449.81 4503.46,1474.6 4529.02,1494.18C4554.57,1513.76 4582.14,1520.77 4590.53,1509.81C4598.92,1498.86 4584.98,1474.07 4559.43,1454.49Z" style="fill:none;stroke:black;stroke-width:26.25px;stroke-miterlimit:1.5;"/>
        <path d="M4590.53,1509.82L4242.41,1964.16" style="fill:none;stroke:black;stroke-width:26.25px;stroke-miterlimit:1.5;"/>
        <path d="M4497.93,1438.86L3998.71,2090.39" style="fill:none;stroke:black;stroke-width:26.25px;stroke-miterlimit:1.5;"/>
    </g>
    <g>
        <path d="M3515.55,1616.68L4024.5,2019.31L4096.88,1927.82L3587.93,1525.18L3515.55,1616.68Z" style="fill:white;"/>
        <path d="M3512.52,1539.91C3492.55,1565.16 3485.11,1592.61 3495.93,1601.17C3506.76,1609.73 3531.76,1596.18 3551.73,1570.93C3571.71,1545.68 3579.14,1518.23 3568.32,1509.67C3557.5,1501.11 3532.49,1514.66 3512.52,1539.91Z" style="fill:none;stroke:black;stroke-width:26.25px;stroke-miterlimit:1.5;"/>
        <path d="M3568.32,1509.67L4108.88,1937.31" style="fill:none;stroke:black;stroke-width:26.25px;stroke-miterlimit:1.5;"/>
        <path d="M3495.94,1601.17L4039.66,2031.31" style="fill:none;stroke:black;stroke-width:26.25px;stroke-miterlimit:1.5;"/>
    </g>
    <g>
        <path d="M4064.7,1382.93L3871.75,2026.77L3983.5,2060.26L4176.46,1416.42L4064.7,1382.93Z" style="fill:white;"/>
        <path d="M4134.94,1351.78C4104.1,1342.54 4075.85,1345.77 4071.89,1358.98C4067.92,1372.2 4089.75,1390.43 4120.59,1399.68C4151.43,1408.92 4179.68,1405.69 4183.64,1392.47C4187.6,1379.26 4165.78,1361.02 4134.94,1351.78Z" style="fill:none;stroke:black;stroke-width:26.25px;stroke-miterlimit:1.5;"/>
        <path d="M4183.64,1392.48L3970.63,2103.26" style="fill:none;stroke:black;stroke-width:26.25px;stroke-miterlimit:1.5;"/>
        <path d="M4071.88,1358.99L3852.48,2091.07" style="fill:none;stroke:black;stroke-width:26.25px;stroke-miterlimit:1.5;"/>
    </g>
    <path d="M15499.2,146.38L9067.83,146.38C8952.78,146.38 8859.5,247.63 8859.5,372.526L8859.5,1272.39C8721.58,1303.15 8407.19,1386.85 7987.47,1251.94C8310.59,1457.54 8563.23,1499.96 8859.5,1501.35L8859.5,2737.64C8859.5,2862.53 8952.78,2963.8 9067.83,2963.8L15499.2,2963.8C15614.3,2963.8 15707.5,2862.53 15707.5,2737.64L15707.5,372.535C15707.5,247.639 15614.3,146.389 15499.2,146.389L15499.2,146.38Z" style="fill:none;fill-rule:nonzero;stroke:rgb(35,31,32);stroke-width:27.08px;"/>
    <path d="M7825.38,1802.79C7860.87,2255.36 7806.94,2731.07 7806.94,2731.07L8011.73,2955.22L7069.08,2955.36L7138.05,2191.77C7138.05,2191.77 7062.98,2272.63 6978.28,2195.57C7066.86,2180.2 7045.85,2083.68 7045.85,2083.68C6770.38,1952.42 6254.01,1666.23 7226.32,1345.88" style="fill:none;fill-rule:nonzero;stroke:rgb(35,31,32);stroke-width:34.72px;"/>
    <path d="M7226.32,1345.87C7245.09,1224 7020.09,897.415 7259.17,747.381C7406.91,654.724 7638.86,770.853 7732.59,972.433C7686.46,997.138 7629.48,991.148 7629.48,991.148L7590.5,1276.84C7590.5,1276.84 7776.84,1705.54 8405.69,1775.4" style="fill:none;fill-rule:nonzero;stroke:rgb(35,31,32);stroke-width:34.72px;"/>
    <path d="M7599.93,1138.76C7387.14,1165.83 7285.5,980.983 7285.8,882.111" style="fill:none;fill-rule:nonzero;stroke:rgb(35,31,32);stroke-width:34.72px;"/>
    <path d="M7470.09,902.104C7470.09,917.66 7482.68,930.229 7498.22,930.229C7513.77,930.229 7526.34,917.66 7526.34,902.104C7526.34,886.566 7513.77,873.962 7498.22,873.962C7482.68,873.962 7470.09,886.566 7470.09,902.104" style="fill:rgb(35,31,32);fill-rule:nonzero;"/>
    <path d="M7555.23,2336.48L7554.31,2950.54" style="fill:none;fill-rule:nonzero;stroke:rgb(35,31,32);stroke-width:34.72px;"/>
    <path d="M7835.56,1859.8C7919.4,1929.69 8149.48,2040.94 8382.4,2059.57" style="fill:none;fill-rule:nonzero;stroke:rgb(35,31,32);stroke-width:34.72px;"/>
    <path d="M1715.83,4927.63C1919.95,5001.24 2178.36,5037.58 2353.61,5015.17" style="fill:none;fill-rule:nonzero;stroke:rgb(35,31,32);stroke-width:34.72px;"/>
    <path d="M8261.28,1905.85C8261.28,1905.85 8354.46,1924.5 8382.41,1929.15" style="fill:none;fill-rule:nonzero;stroke:rgb(35,31,32);stroke-width:34.72px;"/>
    <path d="M1785.41,5260.54C1812.56,5563.11 1750.31,5895.87 1750.31,5895.87L1955.1,6120.02L1012.44,6120.15L1112.31,5343.36C1112.31,5343.36 1051.4,5101.11 1060.58,4865.42C1071.08,4596.1 1169.68,4510.68 1169.68,4510.68" style="fill:none;fill-rule:nonzero;stroke:rgb(35,31,32);stroke-width:34.72px;"/>
    <path d="M1105.57,4029.86C1111.4,4008.96 1115.93,4002.25 1128.19,3983.39C1145.37,3956.96 1169.53,3932.89 1202.53,3912.18C1350.27,3819.52 1582.21,3935.65 1675.95,4137.23C1629.82,4161.94 1572.84,4155.95 1572.84,4155.95L1533.86,4441.64C1533.86,4441.64 1674.37,4812.01 2357.39,4756.87M1169.68,4510.67C1182.12,4429.87 1087.42,4259.09 1091.84,4109.44" style="fill:none;fill-rule:nonzero;stroke:rgb(35,31,32);stroke-width:34.72px;"/>
    <path d="M1483.77,4749.41C1628.99,4911.54 1787.55,4995.11 1974.5,5036.73" style="fill:none;fill-rule:nonzero;stroke:rgb(35,31,32);stroke-width:34.72px;"/>
    <path d="M1543.29,4303.56C1384.66,4334.79 1226.19,4260.76 1226.49,4161.89" style="fill:none;fill-rule:nonzero;stroke:rgb(35,31,32);stroke-width:34.72px;"/>
    <path d="M1413.45,4066.9C1413.45,4082.45 1426.04,4095.03 1441.58,4095.03C1457.13,4095.03 1469.7,4082.45 1469.7,4066.9C1469.7,4051.36 1457.13,4038.76 1441.58,4038.76C1426.04,4038.76 1413.45,4051.36 1413.45,4066.9" style="fill:rgb(35,31,32);fill-rule:nonzero;"/>
    <path d="M1498.59,5501.28L1497.67,6115.34" style="fill:none;fill-rule:nonzero;stroke:rgb(35,31,32);stroke-width:34.72px;"/>
    <path d="M1390.3,5016.03C1490.45,5141.03 1681.05,5232.42 1910.23,5277.98" style="fill:none;fill-rule:nonzero;stroke:rgb(35,31,32);stroke-width:34.72px;"/>
    <path d="M2227.81,4887.32C2227.81,4887.32 2322.83,4886.7 2351.15,4885.6" style="fill:none;fill-rule:nonzero;stroke:rgb(35,31,32);stroke-width:34.72px;"/>
    <path d="M1942.61,5167C1942.61,5167 1870.2,5147.01 1849.3,5138.78" style="fill:none;fill-rule:nonzero;stroke:rgb(35,31,32);stroke-width:34.72px;"/>
    <path d="M5851.74,420.538L5851.74,2689.62C5851.74,2840.94 5728.89,2963.79 5577.56,2963.79L566.644,2963.79C415.323,2963.79 292.469,2840.94 292.469,2689.62L292.469,420.538C292.469,269.217 415.323,146.363 566.644,146.363L5577.56,146.363C5728.89,146.363 5851.74,269.217 5851.74,420.538Z" style="fill:none;stroke:black;stroke-width:27.08px;stroke-miterlimit:1.5;"/>
    <path d="M15707.5,3865.46L15707.5,6134.54C15707.5,6285.86 15584.6,6408.72 15433.3,6408.72L559.525,6408.72C408.203,6408.72 285.349,6285.86 285.349,6134.54L285.349,3865.46C285.349,3714.14 408.203,3591.28 559.525,3591.28L15433.3,3591.28C15584.6,3591.28 15707.5,3714.14 15707.5,3865.46Z" style="fill:none;stroke:black;stroke-width:27.08px;stroke-miterlimit:1.5;"/>
    <path d="M15707.5,7193.58L15707.5,9462.66C15707.5,9613.98 15584.6,9736.84 15433.3,9736.84L559.525,9736.84C408.203,9736.84 285.349,9613.98 285.349,9462.66L285.349,7193.58C285.349,7042.26 408.203,6919.4 559.525,6919.4L15433.3,6919.4C15584.6,6919.4 15707.5,7042.26 15707.5,7193.58Z" style="fill:none;stroke:black;stroke-width:27.08px;stroke-miterlimit:1.5;"/>
    <path d="M6195.83,8461.56L6195.83,8194.68L6789.58,8194.68L6789.58,7946.87L7170.83,8328.12L6789.58,8709.37L6789.58,8461.56L6195.83,8461.56Z" style="fill:none;stroke:black;stroke-width:27.08px;stroke-miterlimit:10;"/>
    <path d="M11087.5,8461.56L11087.5,8194.68L11681.2,8194.68L11681.2,7946.87L12062.5,8328.12L11681.2,8709.37L11681.2,8461.56L11087.5,8461.56Z" style="fill:none;stroke:black;stroke-width:27.08px;stroke-miterlimit:10;"/>
    <path d="M7508.94,5133.44L7508.94,4866.57L8102.69,4866.57L8102.69,4618.75L8483.94,5000L8102.69,5381.25L8102.69,5133.44L7508.94,5133.44Z" style="fill:none;stroke:black;stroke-width:27.08px;stroke-miterlimit:10;"/>
    <path d="M11281.3,1255.01C11314.6,1255.01 11345.1,1259.38 11373.1,1268.12C11401,1276.87 11425,1289.72 11445.3,1306.7C11465.5,1323.67 11481.2,1344.46 11492.4,1369.08C11503.7,1393.7 11509.3,1422.05 11509.3,1454.13C11509.3,1479.03 11505.5,1503.65 11498.1,1527.98C11490.6,1552.3 11478.4,1574.37 11461.6,1594.18C11444.7,1613.99 11422.6,1629.89 11395.3,1641.88C11368,1653.88 11334.1,1659.87 11293.8,1659.87L11201.4,1659.87L11201.4,1885.41L11108.8,1885.41L11108.8,1255.01L11281.3,1255.01ZM11292.3,1570.55C11316,1570.55 11335.8,1566.9 11351.5,1559.61C11367.3,1552.31 11379.6,1542.93 11388.6,1531.46C11397.6,1519.99 11404,1507.74 11407.9,1494.7C11411.8,1481.67 11413.7,1469.25 11413.7,1457.44C11413.7,1445.86 11411.8,1433.61 11407.9,1420.69C11404,1407.77 11397.6,1395.52 11388.7,1383.93C11379.8,1372.35 11367.8,1362.85 11352.8,1355.44C11337.8,1348.03 11319.3,1344.32 11297.3,1344.32L11201.4,1344.32L11201.4,1570.55L11292.3,1570.55ZM11398.6,1625.12L11561.9,1885.41L11454,1885.41L11288.3,1627.55L11398.6,1625.12Z" style="fill-rule:nonzero;"/>
    <path d="M11795.6,1894.45C11753.7,1894.45 11717.6,1886.11 11687.4,1869.42C11657.3,1852.74 11634.1,1829.8 11617.8,1800.61C11601.6,1771.42 11593.5,1738.12 11593.5,1700.71C11593.5,1664.56 11602.7,1631.84 11621,1602.53C11639.3,1573.22 11663.8,1549.85 11694.6,1532.41C11725.5,1514.98 11759.7,1506.26 11797.5,1506.26C11846.4,1506.26 11886.9,1520.48 11918.9,1548.92C11950.9,1577.36 11972.5,1617.12 11983.6,1668.21L11687.5,1770.38L11666.5,1718.95L11903.5,1633.28L11884.9,1644.93C11878.2,1626.62 11867.3,1610.72 11852.2,1597.23C11837,1583.73 11816.6,1576.99 11790.7,1576.99C11769.5,1576.99 11750.7,1582.05 11734.2,1592.19C11717.7,1602.33 11704.8,1616.29 11695.4,1634.07C11686.1,1651.85 11681.4,1672.44 11681.4,1695.83C11681.4,1720.28 11686.4,1741.68 11696.4,1760.04C11706.3,1778.41 11720.1,1792.68 11737.7,1802.87C11755.3,1813.06 11775.3,1818.16 11797.5,1818.16C11812.9,1818.16 11827.8,1815.38 11842.1,1809.82C11856.4,1804.27 11869.9,1797.03 11882.5,1788.1L11923.1,1854.13C11904.5,1866.18 11883.9,1875.91 11861.4,1883.33C11838.8,1890.74 11816.9,1894.45 11795.6,1894.45Z" style="fill-rule:nonzero;"/>
    <path d="M12050.5,1255.01L12428.6,1255.01L12428.6,1344.32L12143.1,1344.32L12143.1,1533.19L12392.8,1533.19L12392.8,1622.16L12143.1,1622.16L12143.1,1885.41L12050.5,1885.41L12050.5,1255.01Z" style="fill-rule:nonzero;"/>
    <path d="M12594.7,1900.18C12561.5,1900.18 12534.1,1890.07 12512.5,1869.86C12491,1849.65 12479.6,1823.44 12478.5,1791.23L12478.5,1521.74L12567.8,1521.74L12567.8,1759.26C12568.9,1778.14 12574.4,1793.53 12584.1,1805.4C12593.8,1817.27 12609.3,1823.44 12630.5,1823.9C12650.1,1823.9 12667.6,1817.94 12683.1,1806C12698.5,1794.07 12710.8,1777.77 12719.9,1757.09C12729,1736.41 12733.5,1712.98 12733.5,1686.81L12733.5,1521.74L12822.9,1521.74L12822.9,1885.41L12742.1,1885.41L12734.6,1800.96L12738.1,1815.04C12730.5,1831.37 12719.8,1846.03 12705.9,1859C12692,1871.97 12675.6,1882.08 12656.6,1889.32C12637.7,1896.56 12617.1,1900.18 12594.7,1900.18Z" style="fill-rule:nonzero;"/>
    <path d="M12981.5,1521.73L12990,1625.99L12986.4,1611.38C12996,1589.49 13009.8,1570.75 13027.7,1555.17C13045.7,1539.59 13064.3,1527.57 13083.6,1519.12C13102.9,1510.66 13119.2,1506.43 13132.5,1506.43L13128.2,1595.4C13100.7,1593.31 13076.7,1598.41 13056,1610.69C13035.4,1622.97 13019.3,1639.24 13007.7,1659.52C12996.2,1679.79 12990.4,1701.39 12990.4,1724.32L12990.4,1885.4L12901.6,1885.4L12901.6,1521.73L12981.5,1521.73Z" style="fill-rule:nonzero;"/>
    <path d="M13260.9,1521.73L13268.4,1605.13L13265.2,1593.13C13277.2,1567.07 13295.9,1546.19 13321.5,1530.5C13347.1,1514.81 13377.3,1506.96 13411.9,1506.96C13446.2,1506.96 13474.5,1517.07 13496.8,1537.28C13519.1,1557.49 13530.5,1583.7 13531.1,1615.9L13531.1,1885.4L13441.4,1885.4L13441.4,1647.53C13440.9,1628.64 13435.4,1613.26 13425,1601.39C13414.6,1589.52 13398.5,1583.47 13376.5,1583.24C13356.3,1583.24 13338.1,1589.09 13321.9,1600.78C13305.7,1612.48 13292.9,1628.53 13283.7,1648.91C13274.4,1669.3 13269.8,1692.88 13269.8,1719.64L13269.8,1885.4L13180.4,1885.4L13180.4,1521.73L13260.9,1521.73Z" style="fill-rule:nonzero;"/>
    <path d="M13603.8,1521.38L13693.3,1521.38L13693.3,1885.41L13603.8,1885.41L13603.8,1521.38ZM13598.6,1391.06C13598.6,1377.16 13604.1,1365.58 13615.1,1356.31C13626.1,1347.04 13638,1342.41 13650.7,1342.41C13664,1342.41 13675.9,1347.04 13686.3,1356.31C13696.8,1365.58 13702,1377.16 13702,1391.06C13702,1404.96 13696.8,1416.4 13686.3,1425.38C13675.9,1434.36 13664,1438.84 13650.7,1438.84C13638,1438.84 13626.1,1434.36 13615.1,1425.38C13604.1,1416.4 13598.6,1404.96 13598.6,1391.06Z" style="fill-rule:nonzero;"/>
    <path d="M13890.3,1892.87C13863.7,1892.87 13838,1888.12 13813.2,1878.62C13788.5,1869.12 13767.9,1855.23 13751.5,1836.93L13789.3,1786.01C13805.1,1800.96 13820.9,1812.05 13836.9,1819.29C13852.8,1826.53 13868.2,1830.15 13883,1830.15C13894.2,1830.15 13904.6,1828.79 13914,1826.07C13923.5,1823.34 13931.1,1818.83 13936.9,1812.51C13942.7,1806.2 13945.6,1797.83 13945.6,1787.4C13945.6,1775.01 13941.4,1765.33 13933.1,1758.38C13924.9,1751.43 13914.3,1745.73 13901.6,1741.27C13888.9,1736.81 13875.3,1732.44 13860.9,1728.15C13830.1,1718.3 13806.9,1704.26 13791.3,1686.01C13775.8,1667.77 13768,1646.08 13768,1620.93C13768,1602.06 13772.8,1584.02 13782.5,1566.81C13792.2,1549.61 13806.8,1535.53 13826.5,1524.59C13846.1,1513.64 13870.4,1508.17 13899.5,1508.17C13925.8,1508.17 13949.1,1511.24 13969.4,1517.38C13989.6,1523.52 14008.6,1533.71 14026.2,1547.96L13991.3,1602.17C13980.9,1591.87 13968.6,1583.96 13954.3,1578.46C13940,1572.96 13927.1,1569.92 13915.5,1569.34C13905.3,1568.98 13895.9,1570.49 13887.3,1573.85C13878.6,1577.21 13871.7,1581.85 13866.3,1587.75C13861,1593.66 13858.3,1600.72 13858.3,1608.95C13858,1620.88 13862,1630.44 13870.4,1637.63C13878.8,1644.81 13889.6,1650.48 13902.6,1654.65C13915.7,1658.82 13928.8,1663.22 13941.9,1667.85C13959.7,1673.42 13975.6,1680.6 13989.5,1689.4C14003.4,1698.2 14014.5,1709.06 14022.6,1721.98C14030.8,1734.9 14034.9,1751.03 14034.9,1770.37C14034.9,1792.15 14029.6,1812.4 14019,1831.1C14008.4,1849.81 13992.4,1864.78 13971.2,1876.02C13949.9,1887.25 13923,1892.87 13890.3,1892.87Z" style="fill-rule:nonzero;"/>
    <path d="M14083.2,1885.41L14083.2,1210L14170.6,1210L14170.6,1603.74L14169,1588.97C14181.7,1565.23 14200.4,1545.62 14225.3,1530.16C14250.2,1514.7 14280,1506.97 14314.7,1506.97C14348.9,1506.97 14377.2,1517.07 14399.5,1537.29C14421.8,1557.5 14433.3,1583.71 14433.9,1615.91L14433.9,1885.41L14344.2,1885.41L14344.2,1647.54C14343.6,1628.65 14338.1,1613.27 14327.8,1601.39C14317.4,1589.52 14301.2,1583.47 14279.2,1583.24C14259,1583.24 14240.9,1589.21 14224.6,1601.14C14208.4,1613.08 14195.7,1629.23 14186.4,1649.62C14177.1,1670 14172.5,1693.35 14172.5,1719.65L14172.5,1885.41L14083.2,1885.41Z" style="fill-rule:nonzero;"/>
    <path d="M14820.8,1312.87L14672.4,1559.61L14618.4,1533.37C14625.8,1529.67 14633.8,1526.95 14642.4,1525.21C14651.1,1523.47 14659.7,1522.6 14668.2,1522.6C14689.4,1521.79 14710.2,1524.16 14730.4,1529.72C14750.7,1535.29 14769,1544.78 14785.3,1558.22C14801.5,1571.65 14814.5,1589.49 14824.2,1611.74C14833.9,1633.98 14838.7,1661.67 14838.7,1694.79C14838.7,1735.57 14829.4,1770.76 14810.8,1800.36C14792.2,1829.95 14767.6,1852.69 14736.9,1868.56C14706.2,1884.42 14672.4,1892.36 14635.4,1892.36C14607.7,1892.36 14579.6,1886.65 14551.1,1875.24C14522.6,1863.83 14499.5,1848.63 14481.6,1829.63L14528.9,1753.17C14539.2,1765.8 14553.9,1777.27 14573,1787.58C14592.1,1797.89 14612.1,1803.05 14633,1803.05C14652.7,1803.05 14670.8,1798.53 14687.5,1789.5C14704.2,1780.46 14717.6,1767.37 14727.8,1750.22C14738,1733.08 14743.1,1712.81 14743.1,1689.41C14743.1,1657.9 14733.9,1632.99 14715.4,1614.69C14696.9,1596.39 14671.7,1587.23 14639.8,1587.23C14622.8,1587.23 14608.9,1588.36 14598,1590.62C14587,1592.88 14577,1595.63 14567.8,1598.88L14564.9,1595.75L14693.3,1389.84L14721.4,1401.84L14517.9,1401.84L14517.9,1312.87L14820.8,1312.87Z" style="fill-rule:nonzero;"/>
    <path d="M15104.7,1894.45C15070.8,1894.45 15040.2,1886.43 15013.1,1870.38C14986,1854.34 14964.6,1831.49 14948.9,1801.83C14933.2,1772.17 14925.4,1737.65 14925.4,1698.26C14925.4,1657.96 14933.7,1623.44 14950.4,1594.71C14967.1,1565.98 14989.8,1544.03 15018.7,1528.86C15047.5,1513.68 15079.9,1506.1 15115.8,1506.1C15143.4,1506.1 15169.7,1511.71 15194.8,1522.95C15219.9,1534.19 15239.6,1549.94 15254,1570.21L15251.2,1600.8L15251.2,1210L15340,1210L15340,1885.41L15250.3,1885.41L15250.3,1799.4L15259.5,1822.68C15241.9,1843.3 15220,1860.42 15193.8,1874.03C15167.7,1887.64 15138,1894.45 15104.7,1894.45ZM15132.9,1818.69C15153,1818.69 15171,1815.12 15186.8,1808C15202.6,1800.87 15215.9,1790.91 15226.8,1778.11C15237.6,1765.32 15245.5,1750.23 15250.3,1732.85L15250.3,1659.7C15245.9,1643.25 15238.1,1628.85 15226.8,1616.52C15215.5,1604.18 15201.8,1594.51 15185.8,1587.5C15169.7,1580.49 15152.1,1576.99 15132.9,1576.99C15111.7,1576.99 15092.2,1582.11 15074.4,1592.37C15056.6,1602.62 15042.4,1616.72 15031.7,1634.68C15021.1,1652.63 15015.7,1673.37 15015.7,1696.88C15015.7,1719.7 15021.1,1740.32 15031.7,1758.74C15042.4,1777.16 15056.7,1791.75 15074.6,1802.53C15092.5,1813.3 15111.9,1818.69 15132.9,1818.69Z" style="fill-rule:nonzero;"/>
    <g>
        <g>
            <path d="M10423.4,1040.39L10020.3,1291.82" style="fill:none;fill-rule:nonzero;stroke:black;stroke-width:19.85px;stroke-miterlimit:10;"/>
        </g>
        <g>
            <path d="M9619.53,1550.17L9366.76,1709.64" style="fill:none;fill-rule:nonzero;stroke:black;stroke-width:19.85px;stroke-miterlimit:10;"/>
        </g>
        <g>
            <path d="M9574.59,2059.49L10060.4,1754.34" style="fill:none;fill-rule:nonzero;stroke:black;stroke-width:19.85px;stroke-miterlimit:10;"/>
        </g>
        <g>
            <path d="M10060.4,1754.31L10509.1,2081.89" style="fill:none;fill-rule:nonzero;stroke:black;stroke-width:19.85px;stroke-miterlimit:10;"/>
        </g>
        <g>
            <path d="M10709.6,1727.22L10404.8,1534.73" style="fill:none;fill-rule:nonzero;stroke:black;stroke-width:19.85px;stroke-miterlimit:10;"/>
        </g>
        <g>
            <path d="M9604.86,2011.66C9598,2036.45 9585.44,2053.97 9567.18,2064.3C9548.93,2074.62 9527.42,2076.34 9502.65,2069.44C9477.89,2062.51 9453.19,2047.93 9428.55,2025.68C9403.92,2003.38 9382.65,1976.4 9364.75,1944.75C9346.84,1913.06 9334.7,1880.93 9328.32,1848.31C9321.94,1815.73 9322.18,1787.03 9329.04,1762.28C9335.9,1737.49 9348.46,1719.93 9366.72,1709.64C9384.97,1699.32 9406.49,1697.6 9431.25,1704.5C9456.01,1711.4 9480.71,1726.01 9505.35,1748.26C9529.98,1770.55 9551.25,1797.51 9569.16,1829.19C9587.06,1860.88 9599.21,1893.01 9605.58,1925.59C9611.96,1958.2 9611.72,1986.87 9604.86,2011.66" style="fill:none;fill-rule:nonzero;stroke:black;stroke-width:19.85px;stroke-miterlimit:10;"/>
        </g>
        <g>
            <path d="M9572.41,1994.23C9568.49,2013.55 9560.03,2026.9 9547.03,2034.24C9534.04,2041.58 9518.24,2041.94 9499.66,2035.36C9481.07,2028.74 9462.17,2016.04 9442.97,1997.22C9423.77,1978.43 9406.84,1956.05 9392.17,1930.11C9377.5,1904.13 9367.06,1878.08 9360.86,1851.95C9354.65,1825.79 9353.51,1803.05 9357.43,1783.73C9361.35,1764.37 9369.81,1751.06 9382.81,1743.72C9395.8,1736.34 9411.6,1735.98 9430.19,1742.6C9448.77,1749.22 9467.67,1761.92 9486.87,1780.71C9506.07,1799.53 9523.01,1821.91 9537.67,1847.85C9552.34,1873.79 9562.78,1899.85 9568.98,1926.01C9575.19,1952.13 9576.33,1974.87 9572.41,1994.23" style="fill:none;fill-rule:nonzero;stroke:black;stroke-width:19.16px;stroke-miterlimit:10;"/>
        </g>
        <g>
            <path d="M10623.8,1395.04C10642.1,1384.75 10654.6,1367.19 10661.5,1342.4C10668.3,1317.65 10668.6,1288.95 10662.2,1256.37C10655.8,1223.75 10643.7,1191.62 10625.8,1159.94C10607.9,1128.29 10586.6,1101.3 10562,1079.01C10537.4,1056.75 10512.6,1042.14 10487.9,1035.25C10463.1,1028.35 10441.6,1030.06 10423.3,1040.39" style="fill:none;fill-rule:nonzero;stroke:black;stroke-width:19.85px;stroke-miterlimit:10;"/>
        </g>
        <g>
            <path d="M9602.86,1028.25C9584.6,1017.92 9563.09,1016.25 9538.33,1023.14C9513.56,1030.04 9488.86,1044.61 9464.23,1066.91C9439.6,1089.16 9418.33,1116.15 9400.42,1147.83C9382.51,1179.52 9370.37,1211.65 9364,1244.23C9357.62,1276.81 9357.86,1305.51 9364.72,1330.3C9371.58,1355.06 9384.14,1372.61 9402.39,1382.94" style="fill:none;fill-rule:nonzero;stroke:black;stroke-width:19.85px;stroke-miterlimit:10;"/>
        </g>
        <g>
            <path d="M10404.8,1534.74L10623.8,1395.07" style="fill:none;fill-rule:nonzero;stroke:black;stroke-width:19.85px;stroke-miterlimit:10;"/>
        </g>
        <g>
            <path d="M10404.8,1534.75L10236.2,1428.26" style="fill:none;fill-rule:nonzero;stroke:black;stroke-width:19.85px;stroke-miterlimit:10;"/>
        </g>
        <g>
            <path d="M9619.51,1550.19L9820.32,1411.7" style="fill:none;fill-rule:nonzero;stroke:black;stroke-width:19.85px;stroke-miterlimit:10;"/>
        </g>
        <g>
            <path d="M9360.45,1268C9358.15,1290.96 9359.57,1311.72 9364.72,1330.35C9371.58,1355.09 9383.99,1372.9 9401.96,1383.72L9646.93,1531.29L9721.41,1479.9" style="stroke:black;stroke-width:19.85px;stroke-miterlimit:10;"/>
        </g>
        <g>
            <path d="M10661.5,1342.44C10668.4,1317.69 10668.6,1288.99 10662.2,1256.41C10655.8,1223.79 10646.1,1195.9 10633,1172.72L10236.1,1428.25L10404.8,1534.75L10623.8,1395.08C10642.1,1384.79 10654.6,1367.23 10661.5,1342.44" style="stroke:black;stroke-width:19.85px;stroke-miterlimit:10;"/>
        </g>
        <g>
            <path d="M10471.4,2029.26C10464.5,2004.51 10464.3,1975.81 10470.7,1943.23C10473.2,1930.66 10476.4,1918.18 10480.6,1905.76L10016.4,1598.98L9589.51,1871.47C9596.66,1889.36 9602.01,1907.4 9605.57,1925.59C9611.76,1957.28 9611.71,1985.24 9605.42,2009.5C9605.23,2010.25 9605.04,2010.96 9604.85,2011.67C9598.96,2032.95 9588.87,2048.87 9574.57,2059.49L10043.4,1764.97L10495.8,2072.24C10484.6,2061.84 10476.4,2047.49 10471.4,2029.26" style="stroke:black;stroke-width:19.85px;stroke-miterlimit:10;"/>
        </g>
        <g>
            <path d="M10020.2,1291.8L9602.84,1028.21" style="fill:none;fill-rule:nonzero;stroke:black;stroke-width:19.85px;stroke-miterlimit:10;"/>
        </g>
        <g>
            <path d="M9355.6,1777.92C9352.11,1795.1 9352.49,1814.9 9356.74,1837.3L9579.15,1991.29C9582.15,1972.32 9580.69,1950.29 9574.75,1925.31C9568.33,1898.21 9557.52,1871.22 9542.32,1844.35C9527.12,1817.47 9509.58,1794.28 9489.69,1774.79C9469.8,1755.33 9450.23,1742.17 9430.97,1735.31C9411.71,1728.45 9395.35,1728.83 9381.89,1736.47C9368.42,1744.07 9359.66,1757.87 9355.6,1777.92"/>
        </g>
        <g>
            <path d="M10645,1722.1C10669.8,1715.2 10691.3,1716.92 10709.6,1727.25C10727.8,1737.57 10740.4,1755.13 10747.2,1779.88C10754.1,1804.67 10754.3,1833.33 10748,1865.95C10741.6,1898.53 10729.4,1930.66 10711.5,1962.35C10693.6,1994.03 10672.4,2020.99 10647.7,2043.28C10623.1,2065.57 10598.4,2080.14 10573.6,2087.04C10548.9,2093.94 10527.4,2092.22 10509.1,2081.93C10490.8,2071.61 10478.3,2054.05 10471.4,2029.26C10464.5,2004.51 10464.3,1975.81 10470.7,1943.23C10477.1,1910.61 10489.2,1878.48 10507.1,1846.83C10525,1815.14 10546.3,1788.15 10570.9,1765.9C10595.6,1743.61 10620.2,1729.03 10645,1722.1" style="fill:none;fill-rule:nonzero;stroke:black;stroke-width:19.85px;stroke-miterlimit:10;"/>
        </g>
        <g>
            <path d="M10645.3,1752.89C10664.6,1746.07 10680.9,1746.44 10694.4,1754.05C10707.9,1761.65 10716.6,1775.48 10720.7,1795.5C10724.7,1815.55 10723.5,1839.11 10717.1,1866.17C10710.7,1893.27 10699.9,1920.26 10684.7,1947.14C10669.5,1974.02 10651.9,1997.2 10632.1,2016.7C10612.2,2036.16 10592.6,2049.31 10573.3,2056.17C10554.1,2063.03 10537.7,2062.66 10524.3,2055.05C10510.8,2047.41 10502,2033.62 10498,2013.57C10493.9,1993.55 10495.1,1969.99 10501.5,1942.89C10507.9,1915.83 10518.7,1888.84 10534,1861.92C10549.1,1835.05 10566.7,1811.86 10586.6,1792.4C10606.5,1772.91 10626,1759.75 10645.3,1752.89" style="fill:none;fill-rule:nonzero;"/>
        </g>
        <g>
            <path d="M10645.3,1752.89C10626,1759.75 10606.5,1772.91 10586.6,1792.4C10566.7,1811.86 10549.1,1835.05 10534,1861.92C10518.7,1888.84 10507.9,1915.83 10501.5,1942.89C10495.1,1969.99 10493.9,1993.55 10498,2013.57C10502,2033.62 10510.8,2047.41 10524.3,2055.05C10537.7,2062.66 10554.1,2063.03 10573.3,2056.17C10592.6,2049.31 10612.2,2036.16 10632.1,2016.7C10651.9,1997.2 10669.5,1974.02 10684.7,1947.14C10699.9,1920.26 10710.7,1893.27 10717.1,1866.17C10723.5,1839.11 10724.7,1815.55 10720.7,1795.5C10716.6,1775.48 10707.9,1761.65 10694.4,1754.05C10680.9,1746.44 10664.6,1746.07 10645.3,1752.89"/>
        </g>
    </g>
    <path d="M1132.25,4092.61L1233.41,4027.58L1273.66,3968.77L1194.33,3985.82L971.868,4127.96L971.695,4161.88L1001.64,4176.57L1076.12,4128.7" style="fill:none;fill-rule:nonzero;stroke:rgb(35,31,32);stroke-width:17.36px;"/>
    <path d="M971.684,4161.89L1201.14,4015.87" style="fill:none;fill-rule:nonzero;stroke:rgb(35,31,32);stroke-width:13.02px;"/>
    <path d="M1187.37,3990.4L1226.48,4029.86" style="fill:none;fill-rule:nonzero;stroke:rgb(35,31,32);stroke-width:13.02px;"/>
    <path d="M1148.16,4164.01C1148.16,4164.01 1089.46,4195.28 1082.31,4142.64C1075.19,4089.98 1109.83,4087.64 1130.33,4101.15" style="fill:none;fill-rule:nonzero;stroke:rgb(35,31,32);stroke-width:34.74px;"/>
    <g>
        <path d="M2126.87,4915.71L1964.22,5629.75L1850.47,5603.84L2013.12,4889.8L2126.87,4915.71Z" style="fill:white;"/>
        <path d="M2022.01,4850.77L1863.84,5545.14L1977.59,5571.06L2135.76,4876.68L2022.01,4850.77Z" style="fill:white;"/>
        <path d="M2081.1,4854C2049.71,4846.85 2021.74,4851.97 2018.67,4865.42C2015.61,4878.87 2038.6,4895.6 2069.99,4902.75C2101.39,4909.9 2129.36,4904.78 2132.42,4891.33C2135.49,4877.88 2112.49,4861.15 2081.1,4854Z" style="fill:none;stroke:black;stroke-width:35.42px;stroke-miterlimit:1.5;"/>
        <path d="M1849.61,5606.47C1846.55,5619.92 1869.44,5637.36 1900.84,5644.51C1932.23,5651.66 1961.15,5643.2 1964.22,5629.75" style="fill:none;stroke:black;stroke-width:35.42px;stroke-miterlimit:1.5;"/>
        <path d="M2132.42,4891.33L1964.22,5629.75" style="fill:none;stroke:black;stroke-width:35.42px;stroke-miterlimit:1.5;"/>
        <path d="M2018.67,4865.42L1848.93,5610.58" style="fill:none;stroke:black;stroke-width:35.42px;stroke-miterlimit:1.5;"/>
    </g>
    <g>
        <path d="M2324.45,5320.41L2335.04,4510.68L2447.53,4512.15L2436.94,5321.88L2324.45,5320.41Z" style="fill:white;stroke:black;stroke-width:34.58px;stroke-miterlimit:1.5;"/>
        <path d="M2439.25,4826.03L2383.01,4825.29" style="fill:none;stroke:black;stroke-width:34.58px;stroke-miterlimit:1.5;"/>
        <path d="M2436.75,5017.68L2380.51,5016.94" style="fill:none;stroke:black;stroke-width:34.58px;stroke-miterlimit:1.5;"/>
        <path d="M2434.24,5209.33L2377.99,5208.59" style="fill:none;stroke:black;stroke-width:34.58px;stroke-miterlimit:1.5;"/>
        <path d="M2435.06,5146.84L2395.48,5146.32" style="fill:none;stroke:black;stroke-width:26.25px;stroke-miterlimit:1.5;"/>
        <path d="M2435.88,5084.34L2396.3,5083.82" style="fill:none;stroke:black;stroke-width:26.25px;stroke-miterlimit:1.5;"/>
        <path d="M2437.62,4951.02L2398.04,4950.5" style="fill:none;stroke:black;stroke-width:26.25px;stroke-miterlimit:1.5;"/>
        <path d="M2438.44,4888.53L2398.86,4888.01" style="fill:none;stroke:black;stroke-width:26.25px;stroke-miterlimit:1.5;"/>
        <path d="M2440.12,4759.37L2400.54,4758.85" style="fill:none;stroke:black;stroke-width:26.25px;stroke-miterlimit:1.5;"/>
        <path d="M2440.94,4696.88L2401.36,4696.36" style="fill:none;stroke:black;stroke-width:26.25px;stroke-miterlimit:1.5;"/>
        <path d="M2442.74,4559.39L2403.16,4558.87" style="fill:none;stroke:black;stroke-width:26.25px;stroke-miterlimit:1.5;"/>
        <path d="M2433.42,5271.83L2393.84,5271.31" style="fill:none;stroke:black;stroke-width:26.25px;stroke-miterlimit:1.5;"/>
        <path d="M2441.76,4634.38L2385.51,4633.64" style="fill:none;stroke:black;stroke-width:34.58px;stroke-miterlimit:1.5;"/>
    </g>
    <rect x="3202.15" y="3918.39" width="2823.43" height="1854.22" style="fill:none;stroke:black;stroke-width:35.42px;stroke-miterlimit:10;"/>
    <path d="M3034.99,5935.64L3034.99,3919.11C3034.99,3807.28 3090.91,3751.36 3202.74,3751.36L6020.14,3751.36C6131.97,3751.36 6187.89,3807.28 6187.89,3919.11L6187.89,5935.64" style="fill:none;fill-rule:nonzero;stroke:black;stroke-width:35.42px;stroke-miterlimit:10;"/>
    <path d="M2772.53,5935.86L6450.03,5935.86L6328.02,6248.62L2894.54,6248.62L2772.53,5935.86Z" style="fill:none;fill-rule:nonzero;stroke:black;stroke-width:35.42px;stroke-linecap:butt;stroke-miterlimit:10;"/>
    <path d="M4980.75,5935.86L4891.39,6090.52L4331.17,6090.52L4241.81,5935.86" style="fill:none;fill-rule:nonzero;stroke:black;stroke-width:35.42px;stroke-miterlimit:10;"/>
    <path d="M5903.36,4597.59L5903.36,4679.75C5903.36,4702.42 5884.95,4720.83 5862.28,4720.83L5361.11,4720.83C5338.43,4720.83 5320.03,4702.42 5320.03,4679.75L5320.03,4597.59C5320.03,4574.92 5338.43,4556.51 5361.11,4556.51L5862.28,4556.51C5884.95,4556.51 5903.36,4574.92 5903.36,4597.59Z" style="fill:none;stroke:black;stroke-width:35.42px;stroke-miterlimit:10;"/>
    <path d="M5903.36,4339.26L5903.36,4421.42C5903.36,4444.09 5884.95,4462.5 5862.28,4462.5L5361.11,4462.5C5338.43,4462.5 5320.03,4444.09 5320.03,4421.42L5320.03,4339.26C5320.03,4316.59 5338.43,4298.18 5361.11,4298.18L5862.28,4298.18C5884.95,4298.18 5903.36,4316.59 5903.36,4339.26Z" style="fill:none;stroke:black;stroke-width:18.75px;stroke-miterlimit:10;"/>
    <path d="M5903.36,4080.93L5903.36,4163.09C5903.36,4185.76 5884.95,4204.17 5862.28,4204.17L5361.11,4204.17C5338.43,4204.17 5320.03,4185.76 5320.03,4163.09L5320.03,4080.93C5320.03,4058.26 5338.43,4039.85 5361.11,4039.85L5862.28,4039.85C5884.95,4039.85 5903.36,4058.26 5903.36,4080.93Z" style="fill:none;stroke:black;stroke-width:18.75px;stroke-miterlimit:10;"/>
    <path d="M5515.44,4667.84L5541.44,4609.51L5554.79,4609.51L5580.85,4667.84L5566.75,4667.84L5545.35,4616.38L5550.7,4616.38L5529.31,4667.84L5515.44,4667.84ZM5528.49,4655.36L5532.04,4645.12L5562.09,4645.12L5565.68,4655.36L5528.49,4655.36Z" style="fill-rule:nonzero;"/>
    <path d="M5580.47,4667.84L5580.47,4609.51L5606.96,4609.51C5613.32,4609.51 5618.92,4610.71 5623.75,4613.12C5628.57,4615.54 5632.34,4618.92 5635.05,4623.27C5637.76,4627.62 5639.12,4632.75 5639.12,4638.66C5639.12,4644.57 5637.76,4649.7 5635.05,4654.06C5632.34,4658.43 5628.57,4661.81 5623.75,4664.22C5618.92,4666.64 5613.32,4667.84 5606.96,4667.84L5580.47,4667.84ZM5594,4656.78L5606.32,4656.78C5610.22,4656.78 5613.59,4656.04 5616.44,4654.57C5619.29,4653.1 5621.51,4651 5623.09,4648.28C5624.68,4645.56 5625.47,4642.35 5625.47,4638.66C5625.47,4634.93 5624.68,4631.72 5623.09,4629.03C5621.51,4626.34 5619.29,4624.25 5616.44,4622.78C5613.59,4621.3 5610.22,4620.57 5606.32,4620.57L5594,4620.57L5594,4656.78Z" style="fill-rule:nonzero;"/>
    <path d="M5649.3,4667.84L5649.3,4609.51L5675.79,4609.51C5682.15,4609.51 5687.75,4610.71 5692.58,4613.12C5697.4,4615.54 5701.17,4618.92 5703.88,4623.27C5706.59,4627.62 5707.95,4632.75 5707.95,4638.66C5707.95,4644.57 5706.59,4649.7 5703.88,4654.06C5701.17,4658.43 5697.4,4661.81 5692.58,4664.22C5687.75,4666.64 5682.15,4667.84 5675.79,4667.84L5649.3,4667.84ZM5662.83,4656.78L5675.15,4656.78C5679.05,4656.78 5682.42,4656.04 5685.27,4654.57C5688.12,4653.1 5690.34,4651 5691.92,4648.28C5693.51,4645.56 5694.3,4642.35 5694.3,4638.66C5694.3,4634.93 5693.51,4631.72 5691.92,4629.03C5690.34,4626.34 5688.12,4624.25 5685.27,4622.78C5682.42,4621.3 5679.05,4620.57 5675.15,4620.57L5662.83,4620.57L5662.83,4656.78Z" style="fill-rule:nonzero;"/>
    <path d="M5532.17,4393.68L5532.17,4386.46L5554.18,4356.82L5565.53,4356.82L5544.01,4386.46L5538.73,4384.86L5575.46,4384.86L5575.46,4393.68L5532.17,4393.68ZM5557.34,4403.49L5557.34,4393.68L5557.64,4384.86L5557.64,4376.16L5567.86,4376.16L5567.86,4403.49L5557.34,4403.49Z" style="fill-rule:nonzero;"/>
    <path d="M5611.85,4403.99C5607.99,4403.99 5604.56,4403.2 5601.54,4401.63C5598.53,4400.06 5596.16,4397.88 5594.45,4395.09C5592.74,4392.3 5591.89,4389.12 5591.89,4385.54C5591.89,4381.93 5592.74,4378.74 5594.45,4375.98C5596.16,4373.22 5598.53,4371.05 5601.54,4369.48C5604.56,4367.9 5607.99,4367.11 5611.85,4367.11C5615.62,4367.11 5618.91,4367.9 5621.72,4369.46C5624.53,4371.02 5626.59,4373.26 5627.89,4376.18L5619.89,4380.55C5618.92,4378.86 5617.73,4377.62 5616.34,4376.82C5614.94,4376.03 5613.42,4375.63 5611.78,4375.63C5610.03,4375.63 5608.44,4376.02 5607.01,4376.81C5605.59,4377.6 5604.47,4378.73 5603.64,4380.2C5602.82,4381.68 5602.41,4383.46 5602.41,4385.54C5602.41,4387.62 5602.82,4389.4 5603.64,4390.89C5604.47,4392.37 5605.59,4393.5 5607.01,4394.29C5608.44,4395.08 5610.03,4395.47 5611.78,4395.47C5613.42,4395.47 5614.94,4395.08 5616.34,4394.3C5617.73,4393.52 5618.92,4392.27 5619.89,4390.55L5627.89,4394.92C5626.59,4397.81 5624.53,4400.05 5621.72,4401.63C5618.91,4403.2 5615.62,4403.99 5611.85,4403.99Z" style="fill-rule:nonzero;"/>
    <path d="M5676.81,4367.12C5679.65,4367.12 5682.16,4367.68 5684.36,4368.8C5686.56,4369.92 5688.29,4371.65 5689.54,4373.98C5690.8,4376.31 5691.42,4379.31 5691.42,4382.97L5691.42,4403.49L5681.02,4403.49L5681.02,4384.52C5681.02,4381.64 5680.42,4379.51 5679.23,4378.14C5678.03,4376.77 5676.36,4376.09 5674.22,4376.09C5672.69,4376.09 5671.32,4376.43 5670.13,4377.11C5668.94,4377.8 5668.01,4378.83 5667.35,4380.2C5666.68,4381.57 5666.35,4383.33 5666.35,4385.49L5666.35,4403.49L5655.95,4403.49L5655.95,4384.52C5655.95,4381.64 5655.36,4379.51 5654.18,4378.14C5653,4376.77 5651.32,4376.09 5649.15,4376.09C5647.61,4376.09 5646.25,4376.43 5645.06,4377.11C5643.86,4377.8 5642.94,4378.83 5642.27,4380.2C5641.61,4381.57 5641.28,4383.33 5641.28,4385.49L5641.28,4403.49L5630.88,4403.49L5630.88,4367.62L5640.78,4367.62L5640.78,4377.41L5638.9,4374.56C5640.14,4372.12 5641.91,4370.27 5644.21,4369.01C5646.51,4367.75 5649.12,4367.12 5652.04,4367.12C5655.32,4367.12 5658.2,4367.95 5660.66,4369.6C5663.13,4371.25 5664.77,4373.8 5665.59,4377.24L5661.92,4376.22C5663.11,4373.44 5665.03,4371.23 5667.67,4369.59C5670.3,4367.94 5673.35,4367.12 5676.81,4367.12Z" style="fill-rule:nonzero;"/>
    <path d="M5514.5,4145.34L5514.5,4138.37L5532.53,4121.36C5533.92,4120.04 5534.96,4118.88 5535.64,4117.87C5536.33,4116.86 5536.79,4115.93 5537.02,4115.09C5537.25,4114.25 5537.37,4113.46 5537.37,4112.71C5537.37,4110.88 5536.74,4109.46 5535.49,4108.44C5534.24,4107.42 5532.39,4106.91 5529.94,4106.91C5527.94,4106.91 5526.11,4107.3 5524.45,4108.07C5522.8,4108.84 5521.4,4110.02 5520.25,4111.61L5512.41,4106.56C5514.18,4103.89 5516.66,4101.78 5519.85,4100.23C5523.04,4098.67 5526.73,4097.89 5530.92,4097.89C5534.4,4097.89 5537.43,4098.45 5540.04,4099.57C5542.64,4100.69 5544.66,4102.28 5546.1,4104.33C5547.54,4106.39 5548.26,4108.83 5548.26,4111.64C5548.26,4113.15 5548.06,4114.66 5547.67,4116.16C5547.28,4117.65 5546.52,4119.23 5545.39,4120.88C5544.26,4122.54 5542.61,4124.39 5540.42,4126.43L5525.5,4140.46L5523.48,4136.52L5549.81,4136.52L5549.81,4145.34L5514.5,4145.34Z" style="fill-rule:nonzero;"/>
    <path d="M5571.61,4146.12C5567.77,4146.12 5564.34,4145.18 5561.33,4143.29C5558.31,4141.41 5555.94,4138.67 5554.2,4135.08C5552.47,4131.49 5551.6,4127.13 5551.6,4122C5551.6,4116.87 5552.47,4112.51 5554.2,4108.92C5555.94,4105.33 5558.31,4102.59 5561.33,4100.71C5564.34,4098.82 5567.77,4097.88 5571.61,4097.88C5575.45,4097.88 5578.88,4098.82 5581.89,4100.71C5584.91,4102.59 5587.28,4105.33 5589.02,4108.92C5590.75,4112.51 5591.62,4116.87 5591.62,4122C5591.62,4127.13 5590.75,4131.49 5589.02,4135.08C5587.28,4138.67 5584.91,4141.41 5581.89,4143.29C5578.88,4145.18 5575.45,4146.12 5571.61,4146.12ZM5571.61,4137.02C5573.41,4137.02 5574.99,4136.5 5576.36,4135.47C5577.72,4134.44 5578.79,4132.81 5579.56,4130.6C5580.34,4128.38 5580.73,4125.52 5580.73,4122C5580.73,4118.47 5580.34,4115.6 5579.56,4113.39C5578.79,4111.19 5577.72,4109.57 5576.36,4108.53C5574.99,4107.5 5573.41,4106.98 5571.61,4106.98C5569.84,4106.98 5568.26,4107.5 5566.89,4108.53C5565.51,4109.57 5564.43,4111.19 5563.66,4113.39C5562.88,4115.6 5562.5,4118.47 5562.5,4122C5562.5,4125.52 5562.88,4128.38 5563.66,4130.6C5564.43,4132.81 5565.51,4134.44 5566.89,4135.47C5568.26,4136.5 5569.84,4137.02 5571.61,4137.02Z" style="fill-rule:nonzero;"/>
    <path d="M5631.24,4145.85C5627.38,4145.85 5623.95,4145.06 5620.93,4143.49C5617.91,4141.92 5615.55,4139.74 5613.84,4136.95C5612.13,4134.16 5611.28,4130.98 5611.28,4127.4C5611.28,4123.79 5612.13,4120.6 5613.84,4117.84C5615.55,4115.08 5617.91,4112.91 5620.93,4111.34C5623.95,4109.76 5627.38,4108.98 5631.24,4108.98C5635.01,4108.98 5638.3,4109.76 5641.11,4111.32C5643.92,4112.88 5645.98,4115.12 5647.28,4118.04L5639.28,4122.41C5638.31,4120.72 5637.12,4119.48 5635.73,4118.68C5634.33,4117.89 5632.81,4117.49 5631.17,4117.49C5629.42,4117.49 5627.83,4117.88 5626.4,4118.67C5624.98,4119.46 5623.85,4120.59 5623.03,4122.06C5622.21,4123.54 5621.8,4125.32 5621.8,4127.4C5621.8,4129.48 5622.21,4131.26 5623.03,4132.75C5623.85,4134.23 5624.98,4135.36 5626.4,4136.15C5627.83,4136.94 5629.42,4137.33 5631.17,4137.33C5632.81,4137.33 5634.33,4136.94 5635.73,4136.16C5637.12,4135.38 5638.31,4134.13 5639.28,4132.41L5647.28,4136.78C5645.98,4139.67 5643.92,4141.91 5641.11,4143.49C5638.3,4145.06 5635.01,4145.85 5631.24,4145.85Z" style="fill-rule:nonzero;"/>
    <path d="M5696.2,4108.97C5699.04,4108.97 5701.55,4109.53 5703.75,4110.65C5705.95,4111.77 5707.68,4113.5 5708.93,4115.83C5710.19,4118.16 5710.81,4121.16 5710.81,4124.82L5710.81,4145.34L5700.41,4145.34L5700.41,4126.37C5700.41,4123.49 5699.82,4121.36 5698.62,4119.99C5697.42,4118.62 5695.75,4117.94 5693.61,4117.94C5692.08,4117.94 5690.72,4118.28 5689.52,4118.96C5688.33,4119.65 5687.4,4120.68 5686.74,4122.05C5686.07,4123.42 5685.74,4125.18 5685.74,4127.34L5685.74,4145.34L5675.34,4145.34L5675.34,4126.37C5675.34,4123.49 5674.75,4121.36 5673.57,4119.99C5672.39,4118.62 5670.71,4117.94 5668.54,4117.94C5667.01,4117.94 5665.64,4118.28 5664.45,4118.96C5663.26,4119.65 5662.33,4120.68 5661.66,4122.05C5661,4123.42 5660.67,4125.18 5660.67,4127.34L5660.67,4145.34L5650.27,4145.34L5650.27,4109.48L5660.18,4109.48L5660.18,4119.26L5658.29,4116.4C5659.53,4113.97 5661.3,4112.12 5663.6,4110.86C5665.9,4109.6 5668.51,4108.97 5671.43,4108.97C5674.71,4108.97 5677.59,4109.8 5680.05,4111.45C5682.52,4113.1 5684.16,4115.65 5684.98,4119.09L5681.31,4118.07C5682.51,4115.29 5684.42,4113.08 5687.06,4111.44C5689.69,4109.79 5692.74,4108.97 5696.2,4108.97Z" style="fill-rule:nonzero;"/>
    <path d="M5565.08,4908.91L5527.16,4826.76L5628.28,4826.76L5417.98,4643.49L5417.98,4921.55L5482.93,4845.72L5520.73,4927.87L5565.08,4908.91Z" style="fill:white;stroke:black;stroke-width:27.08px;stroke-miterlimit:1.5;"/>
    <path d="M4397.11,4926.61L5386.69,5225.81L4397.11,5525L3407.53,5225.81L4397.11,4926.61Z" style="fill:white;stroke:black;stroke-width:18.75px;stroke-miterlimit:10;"/>
    <path d="M3902.32,5074.22L4891.9,5373.42" style="fill:none;stroke:black;stroke-width:8.33px;stroke-miterlimit:10;"/>
    <path d="M3654.93,5150.01L4644.51,5449.21" style="fill:none;stroke:black;stroke-width:8.33px;stroke-miterlimit:10;"/>
    <path d="M4149.72,4998.43L5139.3,5297.63" style="fill:none;stroke:black;stroke-width:8.33px;stroke-miterlimit:10;"/>
    <path d="M4891.91,5074.22L3902.33,5373.42" style="fill:none;stroke:black;stroke-width:8.33px;stroke-miterlimit:10;"/>
    <path d="M5139.3,5150.01L4149.72,5449.21" style="fill:none;stroke:black;stroke-width:8.33px;stroke-miterlimit:10;"/>
    <path d="M4644.51,4998.43L3654.93,5297.63" style="fill:none;stroke:black;stroke-width:8.33px;stroke-miterlimit:10;"/>
    <rect x="12039.6" y="3918.39" width="2823.43" height="1854.22" style="fill:none;stroke:black;stroke-width:35.42px;stroke-miterlimit:10;"/>
    <path d="M11872.5,5935.64L11872.5,3919.11C11872.5,3807.28 11928.4,3751.36 12040.2,3751.36L14857.6,3751.36C14969.5,3751.36 15025.4,3807.28 15025.4,3919.11L15025.4,5935.64" style="fill:none;fill-rule:nonzero;stroke:black;stroke-width:35.42px;stroke-miterlimit:10;"/>
    <path d="M11610,5935.86L15287.5,5935.86L15165.5,6248.62L11732,6248.62L11610,5935.86Z" style="fill:none;fill-rule:nonzero;stroke:black;stroke-width:35.42px;stroke-linecap:butt;stroke-miterlimit:10;"/>
    <path d="M13818.3,5935.86L13728.9,6090.52L13168.7,6090.52L13079.4,5935.86" style="fill:none;fill-rule:nonzero;stroke:black;stroke-width:35.42px;stroke-miterlimit:10;"/>
    <path d="M14740.9,4826.76L14740.9,4908.92C14740.9,4931.59 14722.5,4950 14699.8,4950L14198.6,4950C14176,4950 14157.6,4931.59 14157.6,4908.92L14157.6,4826.76C14157.6,4804.09 14176,4785.68 14198.6,4785.68L14699.8,4785.68C14722.5,4785.68 14740.9,4804.09 14740.9,4826.76Z" style="fill:none;stroke:black;stroke-width:35.42px;stroke-miterlimit:10;"/>
    <path d="M14740.9,4105.04L14740.9,4668.14C14740.9,4704.12 14711.7,4733.34 14675.7,4733.34L14222.8,4733.34C14186.8,4733.34 14157.6,4704.12 14157.6,4668.14L14157.6,4105.04C14157.6,4069.06 14186.8,4039.85 14222.8,4039.85L14675.7,4039.85C14711.7,4039.85 14740.9,4069.06 14740.9,4105.04Z" style="fill:none;stroke:black;stroke-width:18.75px;stroke-miterlimit:10;"/>
    <path d="M14224.1,4902.74C14218.8,4902.74 14213.9,4901.89 14209.4,4900.18C14204.9,4898.48 14201,4896.06 14197.7,4892.93C14194.4,4889.8 14191.9,4886.1 14190,4881.85C14188.2,4877.6 14187.3,4872.93 14187.3,4867.84C14187.3,4862.74 14188.2,4858.07 14190,4853.82C14191.9,4849.57 14194.5,4845.88 14197.8,4842.75C14201.1,4839.61 14205,4837.2 14209.5,4835.49C14214.1,4833.79 14219,4832.94 14224.4,4832.94C14230.4,4832.94 14235.8,4833.93 14240.6,4835.9C14245.4,4837.88 14249.4,4840.77 14252.7,4844.56L14242.7,4853.84C14240.2,4851.24 14237.5,4849.32 14234.7,4848.06C14231.8,4846.81 14228.6,4846.18 14225.2,4846.18C14221.9,4846.18 14218.9,4846.7 14216.2,4847.75C14213.5,4848.79 14211.2,4850.27 14209.2,4852.2C14207.3,4854.12 14205.8,4856.41 14204.7,4859.05C14203.6,4861.69 14203.1,4864.62 14203.1,4867.84C14203.1,4870.97 14203.6,4873.86 14204.7,4876.51C14205.8,4879.16 14207.3,4881.46 14209.2,4883.41C14211.2,4885.35 14213.5,4886.85 14216.2,4887.91C14218.8,4888.97 14221.8,4889.49 14225,4889.49C14228.1,4889.49 14231.1,4888.99 14234,4887.99C14236.9,4886.98 14239.8,4885.28 14242.6,4882.89L14251.4,4894.15C14247.7,4896.96 14243.5,4899.09 14238.6,4900.55C14233.8,4902.01 14228.9,4902.74 14224.1,4902.74ZM14237.2,4892.13L14237.2,4866.76L14251.4,4866.76L14251.4,4894.15L14237.2,4892.13Z" style="fill-rule:nonzero;"/>
    <path d="M14280.6,4861.25L14313.1,4861.25L14313.1,4873.4L14280.6,4873.4L14280.6,4861.25ZM14281.7,4889.03L14318.5,4889.03L14318.5,4901.6L14266.2,4901.6L14266.2,4834.07L14317.2,4834.07L14317.2,4846.65L14281.7,4846.65L14281.7,4889.03Z" style="fill-rule:nonzero;"/>
    <path d="M14330.7,4901.61L14330.7,4834.08L14343.6,4834.08L14383.5,4882.74L14377.2,4882.74L14377.2,4834.08L14392.7,4834.08L14392.7,4901.61L14379.8,4901.61L14339.9,4852.94L14346.1,4852.94L14346.1,4901.61L14330.7,4901.61Z" style="fill-rule:nonzero;"/>
    <path d="M14423.8,4861.25L14456.3,4861.25L14456.3,4873.4L14423.8,4873.4L14423.8,4861.25ZM14424.9,4889.03L14461.7,4889.03L14461.7,4901.6L14409.4,4901.6L14409.4,4834.07L14460.4,4834.07L14460.4,4846.65L14424.9,4846.65L14424.9,4889.03Z" style="fill-rule:nonzero;"/>
    <path d="M14473.8,4901.61L14473.8,4834.08L14503,4834.08C14509.1,4834.08 14514.3,4835.06 14518.7,4837.02C14523.1,4838.98 14526.4,4841.8 14528.8,4845.47C14531.2,4849.14 14532.4,4853.5 14532.4,4858.56C14532.4,4863.57 14531.2,4867.89 14528.8,4871.52C14526.4,4875.15 14523.1,4877.93 14518.7,4879.86C14514.3,4881.8 14509.1,4882.77 14503,4882.77L14482.5,4882.77L14489.5,4875.97L14489.5,4901.61L14473.8,4901.61ZM14516.8,4901.61L14499.8,4877.07L14516.6,4877.07L14533.6,4901.61L14516.8,4901.61ZM14489.5,4877.66L14482.5,4870.31L14502.2,4870.31C14507,4870.31 14510.6,4869.27 14513,4867.2C14515.4,4865.12 14516.6,4862.24 14516.6,4858.56C14516.6,4854.83 14515.4,4851.94 14513,4849.89C14510.6,4847.83 14507,4846.8 14502.2,4846.8L14482.5,4846.8L14489.5,4839.39L14489.5,4877.66Z" style="fill-rule:nonzero;"/>
    <path d="M14534,4901.61L14564.1,4834.08L14579.6,4834.08L14609.7,4901.61L14593.4,4901.61L14568.6,4842.03L14574.8,4842.03L14550.1,4901.61L14534,4901.61ZM14549.1,4887.16L14553.2,4875.3L14588,4875.3L14592.2,4887.16L14549.1,4887.16Z" style="fill-rule:nonzero;"/>
    <path d="M14619.9,4901.61L14619.9,4846.84L14598.3,4846.84L14598.3,4834.08L14657.1,4834.08L14657.1,4846.84L14635.6,4846.84L14635.6,4901.61L14619.9,4901.61Z" style="fill-rule:nonzero;"/>
    <path d="M14673.1,4861.25L14705.6,4861.25L14705.6,4873.4L14673.1,4873.4L14673.1,4861.25ZM14674.2,4889.03L14711,4889.03L14711,4901.6L14658.7,4901.6L14658.7,4834.07L14709.7,4834.07L14709.7,4846.65L14674.2,4846.65L14674.2,4889.03Z" style="fill-rule:nonzero;"/>
    <path d="M14548.4,5168.16L14510.5,5086.01L14611.6,5086.01L14401.3,4902.74L14401.3,5180.8L14466.2,5104.97L14504,5187.12L14548.4,5168.16Z" style="fill:white;stroke:black;stroke-width:27.08px;stroke-miterlimit:1.5;"/>
    <path d="M13234.6,4926.61L14224.2,5225.81L13234.6,5525L12245,5225.81L13234.6,4926.61Z" style="fill:white;stroke:black;stroke-width:18.75px;stroke-miterlimit:10;"/>
    <path d="M12739.8,5074.22L13729.4,5373.42" style="fill:none;stroke:black;stroke-width:8.33px;stroke-miterlimit:10;"/>
    <path d="M12492.4,5150.01L13482,5449.21" style="fill:none;stroke:black;stroke-width:8.33px;stroke-miterlimit:10;"/>
    <path d="M12987.2,4998.43L13976.8,5297.63" style="fill:none;stroke:black;stroke-width:8.33px;stroke-miterlimit:10;"/>
    <path d="M13729.4,5074.22L12739.8,5373.42" style="fill:none;stroke:black;stroke-width:8.33px;stroke-miterlimit:10;"/>
    <path d="M13976.8,5150.01L12987.2,5449.21" style="fill:none;stroke:black;stroke-width:8.33px;stroke-miterlimit:10;"/>
    <path d="M13482,4998.43L12492.4,5297.63" style="fill:none;stroke:black;stroke-width:8.33px;stroke-miterlimit:10;"/>
    <path d="M9772.22,6129.16L9760.76,4696.68C9768.3,4583.99 9862.56,4467.84 9862.56,4467.84C9686.12,4048.84 9852.25,3905.83 10023.4,3904.18C10252.4,3902.1 10332.5,4195.31 10332.5,4195.31C10332.5,4195.31 10263.4,4201.76 10223.6,4182.63C10221.9,4220.8 10208.2,4419.62 10208.2,4419.62" style="fill:none;fill-rule:nonzero;stroke:rgb(35,31,32);stroke-width:34.72px;"/>
    <path d="M10531.2,4943.98C10514.9,5355.41 10367.3,5888.06 10367.3,5888.06L10620.9,6129.02" style="fill:none;fill-rule:nonzero;stroke:rgb(35,31,32);stroke-width:34.72px;"/>
    <path d="M11267.1,4958.06C11005.2,5085.88 10507.8,4990.53 10380.2,4847.85" style="fill:none;fill-rule:nonzero;stroke:rgb(35,31,32);stroke-width:34.72px;"/>
    <path d="M10208.3,4419.63C10208.3,4419.63 10718.3,4876.94 11150.8,4697.14" style="fill:none;fill-rule:nonzero;stroke:rgb(35,31,32);stroke-width:34.72px;"/>
    <path d="M10207.8,4338.25C10120.7,4348.03 10023.1,4282.15 9967.61,4185.76" style="fill:none;fill-rule:nonzero;stroke:rgb(35,31,32);stroke-width:34.72px;"/>
    <path d="M10032.9,5495.83L10032,6124.3" style="fill:none;fill-rule:nonzero;stroke:rgb(35,31,32);stroke-width:34.72px;"/>
    <path d="M10253.1,5394.51C10163.7,5477.63 10048.6,5528.67 9907.97,5445.69" style="fill:none;fill-rule:nonzero;stroke:rgb(35,31,32);stroke-width:34.72px;"/>
    <path d="M11213.1,4825.75C11156,4851.83 11089.5,4857.03 11089.5,4857.03" style="fill:none;fill-rule:nonzero;stroke:rgb(35,31,32);stroke-width:34.72px;"/>
    <path d="M10849.1,4406.28C10799.3,4444.58 10735.7,4464.65 10735.7,4464.65" style="fill:none;fill-rule:nonzero;stroke:rgb(35,31,32);stroke-width:34.72px;"/>
    <path d="M10821.4,4256.95C10821.4,4256.95 10536.4,4473.54 10263.9,4454.46" style="fill:none;fill-rule:nonzero;stroke:rgb(35,31,32);stroke-width:34.72px;"/>
    <path d="M10895.6,4531.66C10895.6,4531.66 10696.9,4630.42 10583.3,4656.82" style="fill:none;fill-rule:nonzero;stroke:rgb(35,31,32);stroke-width:34.72px;"/>
    <path d="M10143.9,4101.82C10143.9,4117.35 10156.4,4129.82 10171.8,4129.82C10187.2,4129.82 10199.8,4117.35 10199.8,4101.82C10199.8,4086.39 10187.2,4073.93 10171.8,4073.93C10156.4,4073.93 10143.9,4086.39 10143.9,4101.82" style="fill:rgb(35,31,32);fill-rule:nonzero;"/>
    <g>
        <circle cx="14232.6" cy="4208.81" r="8.333" style="stroke:black;stroke-width:8.33px;stroke-miterlimit:10;"/>
        <path d="M14270.1,4208.81L14674.2,4208.81" style="fill:none;stroke:black;stroke-width:8.33px;stroke-miterlimit:10;"/>
    </g>
    <g>
        <path d="M14270.1,4119.92L14674.2,4119.92" style="fill:none;stroke:black;stroke-width:8.33px;stroke-miterlimit:10;"/>
        <circle cx="14232.6" cy="4119.92" r="8.333" style="stroke:black;stroke-width:8.33px;stroke-miterlimit:10;"/>
    </g>
    <g>
        <circle cx="14232.6" cy="4297.7" r="8.333" style="stroke:black;stroke-width:8.33px;stroke-miterlimit:10;"/>
        <path d="M14270.1,4297.7L14674.2,4297.7" style="fill:none;stroke:black;stroke-width:8.33px;stroke-miterlimit:10;"/>
    </g>
    <g>
        <path d="M14270.1,4475.48L14674.2,4475.48" style="fill:none;stroke:black;stroke-width:8.33px;stroke-miterlimit:10;"/>
        <circle cx="14232.6" cy="4475.48" r="8.333" style="stroke:black;stroke-width:8.33px;stroke-miterlimit:10;"/>
    </g>
    <g>
        <circle cx="14232.6" cy="4564.37" r="8.333" style="stroke:black;stroke-width:8.33px;stroke-miterlimit:10;"/>
        <path d="M14270.1,4564.37L14674.2,4564.37" style="fill:none;stroke:black;stroke-width:8.33px;stroke-miterlimit:10;"/>
    </g>
    <g>
        <path d="M14270.1,4386.59L14674.2,4386.59" style="fill:none;stroke:black;stroke-width:8.33px;stroke-miterlimit:10;"/>
        <circle cx="14232.6" cy="4386.59" r="8.333" style="stroke:black;stroke-width:8.33px;stroke-miterlimit:10;"/>
    </g>
    <g>
        <circle cx="14232.6" cy="4653.26" r="8.333" style="stroke:black;stroke-width:8.33px;stroke-miterlimit:10;"/>
        <path d="M14270.1,4653.26L14674.2,4653.26" style="fill:none;stroke:black;stroke-width:8.33px;stroke-miterlimit:10;"/>
    </g>
    <rect x="2752.95" y="7257.26" width="2823.43" height="1854.22" style="fill:none;stroke:black;stroke-width:35.42px;stroke-miterlimit:10;"/>
    <path d="M2585.79,9274.51L2585.79,7257.98C2585.79,7146.15 2641.71,7090.23 2753.54,7090.23L5570.94,7090.23C5682.77,7090.23 5738.69,7146.15 5738.69,7257.98L5738.69,9274.51" style="fill:none;fill-rule:nonzero;stroke:black;stroke-width:35.42px;stroke-miterlimit:10;"/>
    <path d="M2323.34,9274.73L6000.84,9274.73L5878.83,9587.49L2445.35,9587.49L2323.34,9274.73Z" style="fill:none;fill-rule:nonzero;stroke:black;stroke-width:35.42px;stroke-linecap:butt;stroke-miterlimit:10;"/>
    <path d="M4531.56,9274.73L4442.2,9429.39L3881.98,9429.39L3792.62,9274.73" style="fill:none;fill-rule:nonzero;stroke:black;stroke-width:35.42px;stroke-miterlimit:10;"/>
    <path d="M5454.17,8165.63L5454.17,8247.79C5454.17,8270.46 5435.76,8288.87 5413.09,8288.87L4911.92,8288.87C4889.24,8288.87 4870.84,8270.46 4870.84,8247.79L4870.84,8165.63C4870.84,8142.96 4889.24,8124.55 4911.92,8124.55L5413.09,8124.55C5435.76,8124.55 5454.17,8142.96 5454.17,8165.63Z" style="fill:none;stroke:black;stroke-width:35.42px;stroke-miterlimit:10;"/>
    <path d="M5454.17,7443.91L5454.17,8007.01C5454.17,8042.99 5424.96,8072.2 5388.98,8072.2L4936.03,8072.2C4900.05,8072.2 4870.84,8042.99 4870.84,8007.01L4870.84,7443.91C4870.84,7407.93 4900.05,7378.72 4936.03,7378.72L5388.98,7378.72C5424.96,7378.72 5454.17,7407.93 5454.17,7443.91Z" style="fill:none;stroke:black;stroke-width:18.75px;stroke-miterlimit:10;"/>
    <path d="M4982.15,8200.12L5014.69,8200.12L5014.69,8212.27L4982.15,8212.27L4982.15,8200.12ZM4983.29,8227.9L5020.08,8227.9L5020.08,8240.47L4967.77,8240.47L4967.77,8172.94L5018.77,8172.94L5018.77,8185.52L4983.29,8185.52L4983.29,8227.9Z" style="fill-rule:nonzero;"/>
    <path d="M5023.59,8240.48L5052.58,8200.4L5052.55,8211.83L5024.81,8172.95L5042.51,8172.95L5061.71,8200.01L5054.3,8200.11L5073.28,8172.95L5090.21,8172.95L5062.59,8211.14L5062.59,8199.97L5091.84,8240.48L5073.82,8240.48L5053.93,8211.85L5061.07,8211.81L5041.51,8240.48L5023.59,8240.48Z" style="fill-rule:nonzero;"/>
    <path d="M5088.75,8240.48L5088.75,8172.95L5117.94,8172.95C5124.01,8172.95 5129.24,8173.93 5133.63,8175.89C5138.01,8177.85 5141.39,8180.67 5143.76,8184.34C5146.14,8188.01 5147.32,8192.37 5147.32,8197.43C5147.32,8202.44 5146.14,8206.78 5143.76,8210.44C5141.39,8214.1 5138.01,8216.91 5133.63,8218.89C5129.24,8220.86 5124.01,8221.85 5117.94,8221.85L5097.43,8221.85L5104.41,8214.84L5104.41,8240.48L5088.75,8240.48ZM5104.41,8216.53L5097.43,8209.12L5117.14,8209.12C5121.92,8209.12 5125.51,8208.09 5127.91,8206.04C5130.32,8203.98 5131.52,8201.11 5131.52,8197.43C5131.52,8193.7 5130.32,8190.81 5127.91,8188.76C5125.51,8186.7 5121.92,8185.68 5117.14,8185.68L5097.43,8185.68L5104.41,8178.26L5104.41,8216.53Z" style="fill-rule:nonzero;"/>
    <path d="M5190.01,8241.61C5184.69,8241.61 5179.78,8240.74 5175.26,8239.01C5170.75,8237.27 5166.83,8234.83 5163.52,8231.68C5160.21,8228.54 5157.63,8224.84 5155.8,8220.6C5153.95,8216.36 5153.04,8211.73 5153.04,8206.69C5153.04,8201.65 5153.95,8197.02 5155.8,8192.8C5157.63,8188.58 5160.21,8184.89 5163.53,8181.73C5166.84,8178.58 5170.75,8176.13 5175.25,8174.4C5179.76,8172.67 5184.66,8171.81 5189.98,8171.81C5195.32,8171.81 5200.22,8172.67 5204.7,8174.39C5209.18,8176.11 5213.07,8178.55 5216.38,8181.69C5219.69,8184.84 5222.27,8188.53 5224.11,8192.76C5225.94,8197 5226.86,8201.64 5226.86,8206.7C5226.86,8211.75 5225.94,8216.4 5224.11,8220.65C5222.27,8224.9 5219.69,8228.59 5216.38,8231.73C5213.07,8234.87 5209.18,8237.3 5204.7,8239.02C5200.22,8240.75 5195.33,8241.61 5190.01,8241.61ZM5189.98,8228.36C5192.99,8228.36 5195.78,8227.84 5198.33,8226.79C5200.89,8225.74 5203.11,8224.25 5205.02,8222.33C5206.92,8220.4 5208.41,8218.11 5209.47,8215.47C5210.53,8212.82 5211.06,8209.9 5211.06,8206.69C5211.06,8203.48 5210.53,8200.56 5209.48,8197.93C5208.42,8195.3 5206.94,8193.02 5205.03,8191.1C5203.12,8189.17 5200.89,8187.68 5198.34,8186.63C5195.78,8185.58 5193,8185.05 5189.98,8185.05C5186.96,8185.05 5184.17,8185.58 5181.61,8186.63C5179.04,8187.68 5176.8,8189.17 5174.89,8191.1C5172.98,8193.03 5171.49,8195.32 5170.43,8197.95C5169.37,8200.58 5168.84,8203.5 5168.84,8206.69C5168.84,8209.88 5169.37,8212.8 5170.43,8215.45C5171.49,8218.09 5172.97,8220.38 5174.88,8222.32C5176.79,8224.26 5179.03,8225.76 5181.6,8226.8C5184.17,8227.84 5186.96,8228.36 5189.98,8228.36Z" style="fill-rule:nonzero;"/>
    <path d="M5237.9,8240.48L5237.9,8172.95L5267.09,8172.95C5273.16,8172.95 5278.39,8173.93 5282.78,8175.89C5287.16,8177.85 5290.54,8180.67 5292.91,8184.34C5295.29,8188.01 5296.47,8192.37 5296.47,8197.43C5296.47,8202.44 5295.29,8206.76 5292.91,8210.39C5290.54,8214.02 5287.16,8216.8 5282.78,8218.73C5278.39,8220.67 5273.16,8221.64 5267.09,8221.64L5246.58,8221.64L5253.57,8214.84L5253.57,8240.48L5237.9,8240.48ZM5280.88,8240.48L5263.94,8215.94L5280.67,8215.94L5297.74,8240.48L5280.88,8240.48ZM5253.57,8216.53L5246.58,8209.18L5266.29,8209.18C5271.07,8209.18 5274.66,8208.14 5277.07,8206.07C5279.47,8203.99 5280.67,8201.11 5280.67,8197.43C5280.67,8193.7 5279.47,8190.81 5277.07,8188.76C5274.66,8186.7 5271.07,8185.68 5266.29,8185.68L5246.58,8185.68L5253.57,8178.26L5253.57,8216.53Z" style="fill-rule:nonzero;"/>
    <path d="M5319.98,8240.48L5319.98,8185.71L5298.4,8185.71L5298.4,8172.95L5357.23,8172.95L5357.23,8185.71L5335.65,8185.71L5335.65,8240.48L5319.98,8240.48Z" style="fill-rule:nonzero;"/>
    <path d="M5261.72,8507.03L5223.8,8424.88L5324.91,8424.88L5114.62,8241.61L5114.62,8519.67L5179.57,8443.84L5217.37,8525.99L5261.72,8507.03Z" style="fill:white;stroke:black;stroke-width:27.08px;stroke-miterlimit:1.5;"/>
    <path d="M3947.92,8265.48L4937.5,8564.68L3947.92,8863.87L2958.34,8564.68L3947.92,8265.48Z" style="fill:white;stroke:black;stroke-width:18.75px;stroke-miterlimit:10;"/>
    <path d="M3453.12,8413.09L4442.7,8712.29" style="fill:none;stroke:black;stroke-width:8.33px;stroke-miterlimit:10;"/>
    <path d="M3205.73,8488.88L4195.31,8788.08" style="fill:none;stroke:black;stroke-width:8.33px;stroke-miterlimit:10;"/>
    <path d="M3700.52,8337.3L4690.1,8636.5" style="fill:none;stroke:black;stroke-width:8.33px;stroke-miterlimit:10;"/>
    <path d="M4442.71,8413.09L3453.13,8712.29" style="fill:none;stroke:black;stroke-width:8.33px;stroke-miterlimit:10;"/>
    <path d="M4690.1,8488.88L3700.52,8788.08" style="fill:none;stroke:black;stroke-width:8.33px;stroke-miterlimit:10;"/>
    <path d="M4195.31,8337.3L3205.73,8636.5" style="fill:none;stroke:black;stroke-width:8.33px;stroke-miterlimit:10;"/>
    <path d="M684.754,9457.3L673.299,8024.82C680.838,7912.13 775.092,7795.98 775.092,7795.98C598.652,7376.98 764.782,7233.97 935.973,7232.32C1164.95,7230.24 1245.03,7523.45 1245.03,7523.45C1245.03,7523.45 1175.98,7529.9 1136.17,7510.77C1134.42,7548.94 1120.78,7747.76 1120.78,7747.76" style="fill:none;fill-rule:nonzero;stroke:rgb(35,31,32);stroke-width:34.72px;"/>
    <path d="M1443.74,8272.12C1427.41,8683.55 1279.8,9216.2 1279.8,9216.2L1533.44,9457.17" style="fill:none;fill-rule:nonzero;stroke:rgb(35,31,32);stroke-width:34.72px;"/>
    <path d="M2179.63,8286.19C1917.76,8414.01 1420.38,8318.66 1292.69,8175.98" style="fill:none;fill-rule:nonzero;stroke:rgb(35,31,32);stroke-width:34.72px;"/>
    <path d="M1120.83,7747.77C1120.83,7747.77 1630.81,8205.08 2063.29,8025.28" style="fill:none;fill-rule:nonzero;stroke:rgb(35,31,32);stroke-width:34.72px;"/>
    <path d="M1120.36,7666.39C1033.3,7676.17 935.689,7610.28 880.171,7513.9" style="fill:none;fill-rule:nonzero;stroke:rgb(35,31,32);stroke-width:34.72px;"/>
    <path d="M945.436,8823.97L944.503,9452.44" style="fill:none;fill-rule:nonzero;stroke:rgb(35,31,32);stroke-width:34.72px;"/>
    <path d="M1165.68,8722.65C1076.25,8805.77 961.135,8856.81 820.554,8773.83" style="fill:none;fill-rule:nonzero;stroke:rgb(35,31,32);stroke-width:34.72px;"/>
    <path d="M2125.62,8153.89C2068.48,8179.97 2001.98,8185.17 2001.98,8185.17" style="fill:none;fill-rule:nonzero;stroke:rgb(35,31,32);stroke-width:34.72px;"/>
    <path d="M1761.63,7734.42C1711.85,7772.72 1648.24,7792.79 1648.24,7792.79" style="fill:none;fill-rule:nonzero;stroke:rgb(35,31,32);stroke-width:34.72px;"/>
    <path d="M1733.98,7585.09C1733.98,7585.09 1448.95,7801.68 1176.5,7782.6" style="fill:none;fill-rule:nonzero;stroke:rgb(35,31,32);stroke-width:34.72px;"/>
    <path d="M1808.18,7859.8C1808.18,7859.8 1609.47,7958.56 1495.93,7984.96" style="fill:none;fill-rule:nonzero;stroke:rgb(35,31,32);stroke-width:34.72px;"/>
    <path d="M1056.42,7429.96C1056.42,7445.49 1068.97,7457.96 1084.37,7457.96C1099.76,7457.96 1112.31,7445.49 1112.31,7429.96C1112.31,7414.53 1099.76,7402.07 1084.37,7402.07C1068.97,7402.07 1056.42,7414.53 1056.42,7429.96" style="fill:rgb(35,31,32);fill-rule:nonzero;"/>
    <g>
        <circle cx="4945.88" cy="7547.68" r="8.333" style="stroke:black;stroke-width:8.33px;stroke-miterlimit:10;"/>
        <path d="M4983.38,7547.68L5387.46,7547.68" style="fill:none;stroke:black;stroke-width:8.33px;stroke-miterlimit:10;"/>
    </g>
    <g>
        <path d="M4983.38,7458.79L5387.46,7458.79" style="fill:none;stroke:black;stroke-width:8.33px;stroke-miterlimit:10;"/>
        <circle cx="4945.88" cy="7458.79" r="8.333" style="stroke:black;stroke-width:8.33px;stroke-miterlimit:10;"/>
    </g>
    <g>
        <circle cx="4945.88" cy="7636.57" r="8.333" style="stroke:black;stroke-width:8.33px;stroke-miterlimit:10;"/>
        <path d="M4983.38,7636.57L5387.46,7636.57" style="fill:none;stroke:black;stroke-width:8.33px;stroke-miterlimit:10;"/>
    </g>
    <g>
        <path d="M4983.38,7814.35L5387.46,7814.35" style="fill:none;stroke:black;stroke-width:8.33px;stroke-miterlimit:10;"/>
        <circle cx="4945.88" cy="7814.35" r="8.333" style="stroke:black;stroke-width:8.33px;stroke-miterlimit:10;"/>
    </g>
    <g>
        <circle cx="4945.88" cy="7903.24" r="8.333" style="stroke:black;stroke-width:8.33px;stroke-miterlimit:10;"/>
        <path d="M4983.38,7903.24L5387.46,7903.24" style="fill:none;stroke:black;stroke-width:8.33px;stroke-miterlimit:10;"/>
    </g>
    <g>
        <path d="M4983.38,7725.46L5387.46,7725.46" style="fill:none;stroke:black;stroke-width:8.33px;stroke-miterlimit:10;"/>
        <circle cx="4945.88" cy="7725.46" r="8.333" style="stroke:black;stroke-width:8.33px;stroke-miterlimit:10;"/>
    </g>
    <g>
        <circle cx="4945.88" cy="7992.13" r="8.333" style="stroke:black;stroke-width:8.33px;stroke-miterlimit:10;"/>
        <path d="M4983.38,7992.13L5387.46,7992.13" style="fill:none;stroke:black;stroke-width:8.33px;stroke-miterlimit:10;"/>
    </g>
    <path d="M13409.5,8494.58C13409,8713.3 13371.1,9113.83 13356.9,9266" style="fill:none;fill-rule:nonzero;stroke:rgb(35,31,32);stroke-width:34.72px;"/>
    <path d="M13085.6,8975.53L13060.5,9457.41" style="fill:none;fill-rule:nonzero;stroke:rgb(35,31,32);stroke-width:34.72px;"/>
    <path d="M12668.2,9294.4C12656.8,9391.01 12648.3,9461.41 12648.3,9461.41L13577.2,9461.41" style="fill:none;fill-rule:nonzero;stroke:rgb(35,31,32);stroke-width:34.72px;"/>
    <path d="M12725.1,8753.97C12725.1,8789.96 12687.5,9129.25 12668.6,9294.4" style="fill:none;fill-rule:nonzero;stroke:rgb(35,31,32);stroke-width:34.72px;"/>
    <path d="M12767,8674.94L12856.9,8585.04" style="fill:none;fill-rule:nonzero;stroke:rgb(35,31,32);stroke-width:26.04px;"/>
    <path d="M12601.5,8733.21L12506.8,8827.9L12560.5,8881.46L12675.9,8766.02" style="fill:none;fill-rule:nonzero;stroke:rgb(35,31,32);stroke-width:26.04px;"/>
    <path d="M12800.2,8534.59L12737.1,8597.59" style="fill:none;fill-rule:nonzero;stroke:rgb(35,31,32);stroke-width:26.04px;"/>
    <path d="M12721.3,8449.37C12721.3,8449.37 12923.2,8632.32 12923.2,8632.32L12976.7,8578.71C12976.7,8578.71 12860.1,8424.13 12721.3,8449.37Z" style="fill:none;fill-rule:nonzero;stroke:rgb(35,31,32);stroke-width:26.04px;"/>
    <path d="M13144.4,7806.24C13069.9,7814.61 12986.3,7758.22 12938.7,7675.72" style="fill:none;fill-rule:nonzero;stroke:rgb(35,31,32);stroke-width:34.72px;"/>
    <path d="M12723,8591.65C12723,8591.65 12795.5,8653.14 12726.7,8740.05C12726.7,8740.05 12684.9,8780.68 12621.4,8749.62C12568.6,8723.78 12563.8,8678.91 12563.8,8678.91C12674.2,8651.25 12609.8,8622.29 12609.8,8622.29C12349.4,8498.25 11890.8,8243.13 12810.1,7940.3C12810.1,7874.7 12761.1,7756.61 12736.9,7646.61C12689.6,7431.49 12979,7247.07 13165.7,7490.12C13223.2,7564.86 13227.3,7636.55 13235,7670.85C13203.7,7686.46 13169.5,7680.99 13169.5,7680.99L13132.8,7917.19C13319.4,7971.58 13769,8261.16 13499.4,8530.68C13499.4,8530.68 13422.4,8598.11 13576.5,8598.11C13576.5,8598.11 13566.8,8713.59 13432,8713.59" style="fill:none;fill-rule:nonzero;stroke:rgb(35,31,32);stroke-width:34.72px;"/>
    <path d="M13068.1,7591.26C13068.1,7604.47 13078.8,7615.2 13092,7615.2C13105.3,7615.2 13115.9,7604.47 13115.9,7591.26C13115.9,7577.98 13105.3,7567.32 13092,7567.32C13078.8,7567.32 13068.1,7577.98 13068.1,7591.26" style="fill:rgb(35,31,32);fill-rule:nonzero;"/>
    <g>
        <path d="M7942.72,8767.84L7591.68,8672.44L7481.16,8850.69L7404.21,8974.7L7635.81,8945.74L8014.33,9127.3C8060.24,9151.76 8180.97,9162.75 8235.83,9102.41" style="fill:none;fill-rule:nonzero;stroke:rgb(35,31,32);stroke-width:34.74px;"/>
        <g transform="matrix(1,0,0,1,403.966,-32.189)">
            <path d="M7857.15,9061.06L8065.48,9143.58C8111.39,9168.04 8266.34,9159.31 8260.19,9026.05" style="fill:none;fill-rule:nonzero;stroke:rgb(35,31,32);stroke-width:34.74px;"/>
        </g>
        <path d="M8577.91,8354.44C8594.77,8445.05 8635.42,8799.81 8639.79,8869.39" style="fill:none;fill-rule:nonzero;stroke:rgb(35,31,32);stroke-width:34.74px;"/>
        <path d="M8372.7,7554.34C8372.7,7568.32 8384.02,7579.65 8398.05,7579.65C8412.02,7579.65 8423.34,7568.32 8423.34,7554.34C8423.34,7540.33 8412.02,7528.99 8398.05,7528.99C8384.02,7528.99 8372.7,7540.33 8372.7,7554.34" style="fill:rgb(35,31,32);fill-rule:nonzero;"/>
        <path d="M8453.1,7750.62C8372.06,7762.18 8220.97,7684.39 8220.97,7545.45" style="fill:none;fill-rule:nonzero;stroke:rgb(35,31,32);stroke-width:34.74px;"/>
        <path d="M8596.77,8436.64C8674.57,8493.78 8794.03,8570.72 8980.45,8640.25" style="fill:none;fill-rule:nonzero;stroke:rgb(35,31,32);stroke-width:34.74px;"/>
        <path d="M9012.65,8523.52L9121.35,8571.78" style="fill:none;fill-rule:nonzero;stroke:rgb(35,31,32);stroke-width:34.74px;"/>
        <path d="M7955.95,8824.15L7996.49,8528.87" style="fill:none;fill-rule:nonzero;stroke:rgb(35,31,32);stroke-width:34.74px;"/>
        <path d="M9282.34,8515.44C8485.33,8221.59 8444.72,7862.44 8444.72,7862.44L8474.23,7645.96C8474.23,7645.96 8522.08,7670.44 8573.66,7665.74C8512.67,7384.35 8273.83,7323.08 8140.8,7406.59C7925.55,7541.66 8128.14,7835.67 8111.28,7945.42C8111.28,7945.42 7580.81,8238.18 7963.47,8688.43" style="fill:none;fill-rule:nonzero;stroke:rgb(35,31,32);stroke-width:34.74px;"/>
    </g>
    <rect x="9254.61" y="8085.64" width="1486.76" height="1067.03" style="fill:none;stroke:black;stroke-width:35.42px;stroke-miterlimit:10;"/>
    <rect x="9320.35" y="9152.67" width="1360.34" height="131.482" style="fill:none;stroke:black;stroke-width:35.42px;stroke-miterlimit:10;"/>
    <path d="M10263.3,8677.31L10539.1,8677.31L10539.1,7746.82L9451.79,7746.82L9451.79,8677.31L9742.71,8677.31" style="fill:none;stroke:black;stroke-width:35.42px;stroke-miterlimit:10;"/>
    <path d="M9451.83,7746.82L9254.61,8085.64L9254.61,9152.67L9451.83,8677.31L9451.83,7746.82L9451.83,7746.82Z" style="fill:none;fill-rule:nonzero;stroke:black;stroke-width:35.42px;stroke-linecap:butt;stroke-miterlimit:10;"/>
    <path d="M10539.1,7746.82L10539.1,8677.31L10741.4,9152.67L10741.4,8085.64L10539.1,7746.82L10539.1,7746.82Z" style="fill:none;fill-rule:nonzero;stroke:black;stroke-width:35.42px;stroke-linecap:butt;stroke-miterlimit:10;"/>
    <rect x="9831.11" y="7883.35" width="328.706" height="202.281" style="fill:none;stroke:black;stroke-width:35.42px;stroke-miterlimit:10;"/>
    <path d="M9912.02,8085.64L9912.02,8201.95L9987.88,8277.81L10063.7,8201.95L10063.7,8085.64" style="fill:none;fill-rule:nonzero;stroke:black;stroke-width:35.42px;stroke-miterlimit:10;"/>
    <path d="M10114.3,8480.08L10250.8,8555.94L10250.8,8879.59L10003,9021.18L9755.25,8879.59L9755.25,8555.94L9987.87,8419.4L9987.87,8277.8" style="fill:none;fill-rule:nonzero;stroke:black;stroke-width:29.17px;stroke-miterlimit:10;"/>
    <path d="M10250.8,8555.94L10003,8697.54L10003,9021.18" style="fill:none;fill-rule:nonzero;stroke:black;stroke-width:29.17px;stroke-miterlimit:10;"/>
    <path d="M10173.5,7938.98L10655.4,7938.98M9340.58,7938.98L9819.34,7938.98" style="fill:none;fill-rule:nonzero;stroke:black;stroke-width:35.42px;stroke-miterlimit:10;"/>
    <path d="M10620.9,6129.03L9777.42,6129.16" style="fill:none;stroke:black;stroke-width:29.17px;stroke-miterlimit:10;"/>
    <path d="M13356.9,9266.01L13577.2,9461.41" style="fill:none;stroke:black;stroke-width:29.17px;stroke-miterlimit:10;"/>
    <path d="M3947.92,8124.55L4510.42,8294.62L3947.92,8464.69L3385.42,8294.62L3947.92,8124.55Z" style="fill:white;stroke:black;stroke-width:18.75px;stroke-miterlimit:10;"/>
    <path d="M3712.5,8395.83L3616.67,8564.67" style="fill:none;stroke:black;stroke-width:27.08px;stroke-miterlimit:10;"/>
    <path d="M4253.57,8383.84L4280.03,8610" style="fill:none;stroke:black;stroke-width:27.08px;stroke-miterlimit:10;"/>
    <path d="M4057.65,8440.33L4056.37,8509.66" style="fill:none;stroke:black;stroke-width:27.08px;stroke-miterlimit:10;"/>
    <path d="M3830.45,8460.82L4055.75,8508.65" style="fill:none;stroke:black;stroke-width:27.08px;stroke-miterlimit:10;"/>
    <path d="M3713.47,8399.18L4012.7,8618.11" style="fill:none;stroke:black;stroke-width:27.08px;stroke-miterlimit:10;"/>
    <path d="M4084.01,8434.42L4279.66,8607.49" style="fill:none;stroke:black;stroke-width:27.08px;stroke-miterlimit:10;"/>
    <path d="M4187.02,8399.18L4013.48,8619.97" style="fill:none;stroke:black;stroke-width:27.08px;stroke-miterlimit:10;"/>
    <path d="M3861.97,8442.93L3618.23,8564.68" style="fill:none;stroke:black;stroke-width:27.08px;stroke-miterlimit:10;"/>
    <path d="M14560,8592.55L15541.2,8889.23L14560,9185.91L13578.8,8889.23L14560,8592.55Z" style="fill:white;stroke:black;stroke-width:27.08px;stroke-miterlimit:10;"/>
    <g transform="matrix(0.95489,0.0794755,0.0794755,0.859979,-103.781,182.843)">
        <path d="M14357.7,9065.79L14190.5,9360.32" style="fill:none;stroke:black;stroke-width:27.08px;stroke-miterlimit:10;"/>
    </g>
    <path d="M15093.2,9044.87L15139.4,9439.39" style="fill:none;stroke:black;stroke-width:27.08px;stroke-miterlimit:10;"/>
    <path d="M14751.4,9143.42L14749.2,9264.36" style="fill:none;stroke:black;stroke-width:27.08px;stroke-miterlimit:10;"/>
    <path d="M14355.1,9179.15L14748.1,9262.58" style="fill:none;stroke:black;stroke-width:27.08px;stroke-miterlimit:10;"/>
    <path d="M14151,9071.62L14673,9453.53" style="fill:none;stroke:black;stroke-width:27.08px;stroke-miterlimit:10;"/>
    <path d="M14797.4,9133.1L15138.7,9435.01" style="fill:none;stroke:black;stroke-width:27.08px;stroke-miterlimit:10;"/>
    <path d="M14977.1,9071.62L14674.4,9456.78" style="fill:none;stroke:black;stroke-width:27.08px;stroke-miterlimit:10;"/>
    <path d="M14410.1,9147.94L13984.9,9360.32" style="fill:none;stroke:black;stroke-width:27.08px;stroke-miterlimit:10;"/>
    <g transform="matrix(0.592724,0.426433,-0.584008,0.811748,7253.75,-942.867)">
        <path d="M6959.75,8534.9L6959.75,8693.66C6959.75,8737.48 6911.03,8773.05 6851.03,8773.05L5819.69,8773.05C5759.68,8773.05 5710.97,8737.48 5710.97,8693.66L5710.97,8534.9C5710.97,8491.08 5759.68,8455.51 5819.69,8455.51L6851.03,8455.51C6911.03,8455.51 6959.75,8491.08 6959.75,8534.9Z" style="fill:white;stroke:black;stroke-width:42.41px;stroke-miterlimit:1.5;"/>
    </g>
    <g transform="matrix(1.11774,0,0,1.11774,-1187.06,-1674.95)">
        <circle cx="5737.77" cy="8840.58" r="600.099" style="fill:white;stroke:black;stroke-width:29.5px;stroke-miterlimit:1.5;"/>
    </g>
    <g transform="matrix(1,0,0,1,-511.473,-633.865)">
        <circle cx="5737.77" cy="8840.58" r="600.099" style="fill:white;stroke:black;stroke-width:32.98px;stroke-miterlimit:1.5;"/>
    </g>
    <g transform="matrix(0.580008,0.417284,-0.584008,0.811748,16591,-4120.33)">
        <path d="M6959.75,8534.9L6959.75,8693.66C6959.75,8737.48 6909.97,8773.05 6848.65,8773.05L5822.07,8773.05C5760.75,8773.05 5710.97,8737.48 5710.97,8693.66L5710.97,8534.9C5710.97,8491.08 5760.75,8455.51 5822.07,8455.51L6848.65,8455.51C6909.97,8455.51 6959.75,8491.08 6959.75,8534.9Z" style="fill:white;stroke:black;stroke-width:42.73px;stroke-miterlimit:1.5;"/>
    </g>
    <g transform="matrix(1.11774,0,0,1.11774,8077.58,-4904.66)">
        <circle cx="5737.77" cy="8840.58" r="600.099" style="fill:white;stroke:black;stroke-width:29.5px;stroke-miterlimit:1.5;"/>
    </g>
    <g transform="matrix(1,0,0,1,8753.17,-3863.58)">
        <circle cx="5737.77" cy="8840.58" r="600.099" style="fill:white;stroke:black;stroke-width:32.98px;stroke-miterlimit:1.5;"/>
    </g>
    <g transform="matrix(0.589507,0.424118,-0.584008,0.811748,7767.69,-4035.12)">
        <path d="M6959.75,8534.9L6959.75,8693.66C6959.75,8737.48 6910.77,8773.05 6850.44,8773.05L5820.28,8773.05C5759.95,8773.05 5710.97,8737.48 5710.97,8693.66L5710.97,8534.9C5710.97,8491.08 5759.95,8455.51 5820.28,8455.51L6850.44,8455.51C6910.77,8455.51 6959.75,8491.08 6959.75,8534.9Z" style="fill:white;stroke:black;stroke-width:42.49px;stroke-miterlimit:1.5;"/>
    </g>
    <g transform="matrix(1.11774,0,0,1.11774,-691.494,-4780.41)">
        <circle cx="5737.77" cy="8840.58" r="600.099" style="fill:white;stroke:black;stroke-width:29.5px;stroke-miterlimit:1.5;"/>
    </g>
    <g transform="matrix(1,0,0,1,-15.9064,-3739.33)">
        <circle cx="5737.77" cy="8840.58" r="600.099" style="fill:white;stroke:black;stroke-width:32.98px;stroke-miterlimit:1.5;"/>
    </g>
    <g transform="matrix(1.57019,0,0,1.59824,-2874.26,-4977.66)">
        <path d="M5454.17,8165.63L5454.17,8247.79C5454.17,8270.46 5435.76,8288.87 5413.09,8288.87L4911.92,8288.87C4889.24,8288.87 4870.84,8270.46 4870.84,8247.79L4870.84,8165.63C4870.84,8142.96 4889.24,8124.55 4911.92,8124.55L5413.09,8124.55C5435.76,8124.55 5454.17,8142.96 5454.17,8165.63Z" style="fill:none;stroke:black;stroke-width:35.42px;stroke-miterlimit:10;"/>
    </g>
    <g transform="matrix(1.57019,0,0,1.59824,-2874.26,-4977.66)">
        <path d="M4982.15,8200.12L5014.69,8200.12L5014.69,8212.27L4982.15,8212.27L4982.15,8200.12ZM4983.29,8227.9L5020.08,8227.9L5020.08,8240.47L4967.77,8240.47L4967.77,8172.94L5018.77,8172.94L5018.77,8185.52L4983.29,8185.52L4983.29,8227.9Z" style="fill-rule:nonzero;"/>
    </g>
    <g transform="matrix(1.57019,0,0,1.59824,-2874.26,-4977.66)">
        <path d="M5023.59,8240.48L5052.58,8200.4L5052.55,8211.83L5024.81,8172.95L5042.51,8172.95L5061.71,8200.01L5054.3,8200.11L5073.28,8172.95L5090.21,8172.95L5062.59,8211.14L5062.59,8199.97L5091.84,8240.48L5073.82,8240.48L5053.93,8211.85L5061.07,8211.81L5041.51,8240.48L5023.59,8240.48Z" style="fill-rule:nonzero;"/>
    </g>
    <g transform="matrix(1.57019,0,0,1.59824,-2874.26,-4977.66)">
        <path d="M5088.75,8240.48L5088.75,8172.95L5117.94,8172.95C5124.01,8172.95 5129.24,8173.93 5133.63,8175.89C5138.01,8177.85 5141.39,8180.67 5143.76,8184.34C5146.14,8188.01 5147.32,8192.37 5147.32,8197.43C5147.32,8202.44 5146.14,8206.78 5143.76,8210.44C5141.39,8214.1 5138.01,8216.91 5133.63,8218.89C5129.24,8220.86 5124.01,8221.85 5117.94,8221.85L5097.43,8221.85L5104.41,8214.84L5104.41,8240.48L5088.75,8240.48ZM5104.41,8216.53L5097.43,8209.12L5117.14,8209.12C5121.92,8209.12 5125.51,8208.09 5127.91,8206.04C5130.32,8203.98 5131.52,8201.11 5131.52,8197.43C5131.52,8193.7 5130.32,8190.81 5127.91,8188.76C5125.51,8186.7 5121.92,8185.68 5117.14,8185.68L5097.43,8185.68L5104.41,8178.26L5104.41,8216.53Z" style="fill-rule:nonzero;"/>
    </g>
    <g transform="matrix(1.57019,0,0,1.59824,-2874.26,-4977.66)">
        <path d="M5190.01,8241.61C5184.69,8241.61 5179.78,8240.74 5175.26,8239.01C5170.75,8237.27 5166.83,8234.83 5163.52,8231.68C5160.21,8228.54 5157.63,8224.84 5155.8,8220.6C5153.95,8216.36 5153.04,8211.73 5153.04,8206.69C5153.04,8201.65 5153.95,8197.02 5155.8,8192.8C5157.63,8188.58 5160.21,8184.89 5163.53,8181.73C5166.84,8178.58 5170.75,8176.13 5175.25,8174.4C5179.76,8172.67 5184.66,8171.81 5189.98,8171.81C5195.32,8171.81 5200.22,8172.67 5204.7,8174.39C5209.18,8176.11 5213.07,8178.55 5216.38,8181.69C5219.69,8184.84 5222.27,8188.53 5224.11,8192.76C5225.94,8197 5226.86,8201.64 5226.86,8206.7C5226.86,8211.75 5225.94,8216.4 5224.11,8220.65C5222.27,8224.9 5219.69,8228.59 5216.38,8231.73C5213.07,8234.87 5209.18,8237.3 5204.7,8239.02C5200.22,8240.75 5195.33,8241.61 5190.01,8241.61ZM5189.98,8228.36C5192.99,8228.36 5195.78,8227.84 5198.33,8226.79C5200.89,8225.74 5203.11,8224.25 5205.02,8222.33C5206.92,8220.4 5208.41,8218.11 5209.47,8215.47C5210.53,8212.82 5211.06,8209.9 5211.06,8206.69C5211.06,8203.48 5210.53,8200.56 5209.48,8197.93C5208.42,8195.3 5206.94,8193.02 5205.03,8191.1C5203.12,8189.17 5200.89,8187.68 5198.34,8186.63C5195.78,8185.58 5193,8185.05 5189.98,8185.05C5186.96,8185.05 5184.17,8185.58 5181.61,8186.63C5179.04,8187.68 5176.8,8189.17 5174.89,8191.1C5172.98,8193.03 5171.49,8195.32 5170.43,8197.95C5169.37,8200.58 5168.84,8203.5 5168.84,8206.69C5168.84,8209.88 5169.37,8212.8 5170.43,8215.45C5171.49,8218.09 5172.97,8220.38 5174.88,8222.32C5176.79,8224.26 5179.03,8225.76 5181.6,8226.8C5184.17,8227.84 5186.96,8228.36 5189.98,8228.36Z" style="fill-rule:nonzero;"/>
    </g>
    <g transform="matrix(1.57019,0,0,1.59824,-2874.26,-4977.66)">
        <path d="M5237.9,8240.48L5237.9,8172.95L5267.09,8172.95C5273.16,8172.95 5278.39,8173.93 5282.78,8175.89C5287.16,8177.85 5290.54,8180.67 5292.91,8184.34C5295.29,8188.01 5296.47,8192.37 5296.47,8197.43C5296.47,8202.44 5295.29,8206.76 5292.91,8210.39C5290.54,8214.02 5287.16,8216.8 5282.78,8218.73C5278.39,8220.67 5273.16,8221.64 5267.09,8221.64L5246.58,8221.64L5253.57,8214.84L5253.57,8240.48L5237.9,8240.48ZM5280.88,8240.48L5263.94,8215.94L5280.67,8215.94L5297.74,8240.48L5280.88,8240.48ZM5253.57,8216.53L5246.58,8209.18L5266.29,8209.18C5271.07,8209.18 5274.66,8208.14 5277.07,8206.07C5279.47,8203.99 5280.67,8201.11 5280.67,8197.43C5280.67,8193.7 5279.47,8190.81 5277.07,8188.76C5274.66,8186.7 5271.07,8185.68 5266.29,8185.68L5246.58,8185.68L5253.57,8178.26L5253.57,8216.53Z" style="fill-rule:nonzero;"/>
    </g>
    <g transform="matrix(1.57019,0,0,1.59824,-2874.26,-4977.66)">
        <path d="M5319.98,8240.48L5319.98,8185.71L5298.4,8185.71L5298.4,8172.95L5357.23,8172.95L5357.23,8185.71L5335.65,8185.71L5335.65,8240.48L5319.98,8240.48Z" style="fill-rule:nonzero;"/>
    </g>
    <g transform="matrix(1.57019,0,0,1.59824,-2874.26,-4977.66)">
        <path d="M5261.72,8507.03L5223.8,8424.88L5324.91,8424.88L5114.62,8241.61L5114.62,8519.67L5179.57,8443.84L5217.37,8525.99L5261.72,8507.03Z" style="fill:white;stroke:black;stroke-width:27.08px;stroke-miterlimit:1.5;"/>
    </g>
    <g transform="matrix(1.59957,0,0,1.59957,-3254.42,-2423.57)">
        <path d="M5903.36,4597.59L5903.36,4679.75C5903.36,4702.42 5884.95,4720.83 5862.28,4720.83L5361.11,4720.83C5338.43,4720.83 5320.03,4702.42 5320.03,4679.75L5320.03,4597.59C5320.03,4574.92 5338.43,4556.51 5361.11,4556.51L5862.28,4556.51C5884.95,4556.51 5903.36,4574.92 5903.36,4597.59Z" style="fill:none;stroke:black;stroke-width:35.42px;stroke-miterlimit:10;"/>
    </g>
    <g transform="matrix(1.59957,0,0,1.59957,-3254.42,-2423.57)">
        <path d="M5515.44,4667.84L5541.44,4609.51L5554.79,4609.51L5580.85,4667.84L5566.75,4667.84L5545.35,4616.38L5550.7,4616.38L5529.31,4667.84L5515.44,4667.84ZM5528.49,4655.36L5532.04,4645.12L5562.09,4645.12L5565.68,4655.36L5528.49,4655.36Z" style="fill-rule:nonzero;"/>
    </g>
    <g transform="matrix(1.59957,0,0,1.59957,-3254.42,-2423.57)">
        <path d="M5580.47,4667.84L5580.47,4609.51L5606.96,4609.51C5613.32,4609.51 5618.92,4610.71 5623.75,4613.12C5628.57,4615.54 5632.34,4618.92 5635.05,4623.27C5637.76,4627.62 5639.12,4632.75 5639.12,4638.66C5639.12,4644.57 5637.76,4649.7 5635.05,4654.06C5632.34,4658.43 5628.57,4661.81 5623.75,4664.22C5618.92,4666.64 5613.32,4667.84 5606.96,4667.84L5580.47,4667.84ZM5594,4656.78L5606.32,4656.78C5610.22,4656.78 5613.59,4656.04 5616.44,4654.57C5619.29,4653.1 5621.51,4651 5623.09,4648.28C5624.68,4645.56 5625.47,4642.35 5625.47,4638.66C5625.47,4634.93 5624.68,4631.72 5623.09,4629.03C5621.51,4626.34 5619.29,4624.25 5616.44,4622.78C5613.59,4621.3 5610.22,4620.57 5606.32,4620.57L5594,4620.57L5594,4656.78Z" style="fill-rule:nonzero;"/>
    </g>
    <g transform="matrix(1.59957,0,0,1.59957,-3254.42,-2423.57)">
        <path d="M5649.3,4667.84L5649.3,4609.51L5675.79,4609.51C5682.15,4609.51 5687.75,4610.71 5692.58,4613.12C5697.4,4615.54 5701.17,4618.92 5703.88,4623.27C5706.59,4627.62 5707.95,4632.75 5707.95,4638.66C5707.95,4644.57 5706.59,4649.7 5703.88,4654.06C5701.17,4658.43 5697.4,4661.81 5692.58,4664.22C5687.75,4666.64 5682.15,4667.84 5675.79,4667.84L5649.3,4667.84ZM5662.83,4656.78L5675.15,4656.78C5679.05,4656.78 5682.42,4656.04 5685.27,4654.57C5688.12,4653.1 5690.34,4651 5691.92,4648.28C5693.51,4645.56 5694.3,4642.35 5694.3,4638.66C5694.3,4634.93 5693.51,4631.72 5691.92,4629.03C5690.34,4626.34 5688.12,4624.25 5685.27,4622.78C5682.42,4621.3 5679.05,4620.57 5675.15,4620.57L5662.83,4620.57L5662.83,4656.78Z" style="fill-rule:nonzero;"/>
    </g>
    <g transform="matrix(1.59957,0,0,1.59957,-2995.59,-2345.32)">
        <path d="M5565.08,4908.91L5527.16,4826.76L5628.28,4826.76L5417.98,4643.49L5417.98,4921.55L5482.93,4845.72L5520.73,4927.87L5565.08,4908.91Z" style="fill:white;stroke:black;stroke-width:27.08px;stroke-miterlimit:1.5;"/>
    </g>
    <g transform="matrix(1.63518,0,0,1.63518,-9136.19,-3068.59)">
        <path d="M14740.9,4826.76L14740.9,4908.92C14740.9,4931.59 14722.5,4950 14699.8,4950L14198.6,4950C14176,4950 14157.6,4931.59 14157.6,4908.92L14157.6,4826.76C14157.6,4804.09 14176,4785.68 14198.6,4785.68L14699.8,4785.68C14722.5,4785.68 14740.9,4804.09 14740.9,4826.76Z" style="fill:none;stroke:black;stroke-width:35.42px;stroke-miterlimit:10;"/>
    </g>
    <g transform="matrix(1.63518,0,0,1.63518,-9136.19,-3068.59)">
        <path d="M14224.1,4902.74C14218.8,4902.74 14213.9,4901.89 14209.4,4900.18C14204.9,4898.48 14201,4896.06 14197.7,4892.93C14194.4,4889.8 14191.9,4886.1 14190,4881.85C14188.2,4877.6 14187.3,4872.93 14187.3,4867.84C14187.3,4862.74 14188.2,4858.07 14190,4853.82C14191.9,4849.57 14194.5,4845.88 14197.8,4842.75C14201.1,4839.61 14205,4837.2 14209.5,4835.49C14214.1,4833.79 14219,4832.94 14224.4,4832.94C14230.4,4832.94 14235.8,4833.93 14240.6,4835.9C14245.4,4837.88 14249.4,4840.77 14252.7,4844.56L14242.7,4853.84C14240.2,4851.24 14237.5,4849.32 14234.7,4848.06C14231.8,4846.81 14228.6,4846.18 14225.2,4846.18C14221.9,4846.18 14218.9,4846.7 14216.2,4847.75C14213.5,4848.79 14211.2,4850.27 14209.2,4852.2C14207.3,4854.12 14205.8,4856.41 14204.7,4859.05C14203.6,4861.69 14203.1,4864.62 14203.1,4867.84C14203.1,4870.97 14203.6,4873.86 14204.7,4876.51C14205.8,4879.16 14207.3,4881.46 14209.2,4883.41C14211.2,4885.35 14213.5,4886.85 14216.2,4887.91C14218.8,4888.97 14221.8,4889.49 14225,4889.49C14228.1,4889.49 14231.1,4888.99 14234,4887.99C14236.9,4886.98 14239.8,4885.28 14242.6,4882.89L14251.4,4894.15C14247.7,4896.96 14243.5,4899.09 14238.6,4900.55C14233.8,4902.01 14228.9,4902.74 14224.1,4902.74ZM14237.2,4892.13L14237.2,4866.76L14251.4,4866.76L14251.4,4894.15L14237.2,4892.13Z" style="fill-rule:nonzero;"/>
    </g>
    <g transform="matrix(1.63518,0,0,1.63518,-9136.19,-3068.59)">
        <path d="M14280.6,4861.25L14313.1,4861.25L14313.1,4873.4L14280.6,4873.4L14280.6,4861.25ZM14281.7,4889.03L14318.5,4889.03L14318.5,4901.6L14266.2,4901.6L14266.2,4834.07L14317.2,4834.07L14317.2,4846.65L14281.7,4846.65L14281.7,4889.03Z" style="fill-rule:nonzero;"/>
    </g>
    <g transform="matrix(1.63518,0,0,1.63518,-9136.19,-3068.59)">
        <path d="M14330.7,4901.61L14330.7,4834.08L14343.6,4834.08L14383.5,4882.74L14377.2,4882.74L14377.2,4834.08L14392.7,4834.08L14392.7,4901.61L14379.8,4901.61L14339.9,4852.94L14346.1,4852.94L14346.1,4901.61L14330.7,4901.61Z" style="fill-rule:nonzero;"/>
    </g>
    <g transform="matrix(1.63518,0,0,1.63518,-9136.19,-3068.59)">
        <path d="M14423.8,4861.25L14456.3,4861.25L14456.3,4873.4L14423.8,4873.4L14423.8,4861.25ZM14424.9,4889.03L14461.7,4889.03L14461.7,4901.6L14409.4,4901.6L14409.4,4834.07L14460.4,4834.07L14460.4,4846.65L14424.9,4846.65L14424.9,4889.03Z" style="fill-rule:nonzero;"/>
    </g>
    <g transform="matrix(1.63518,0,0,1.63518,-9136.19,-3068.59)">
        <path d="M14473.8,4901.61L14473.8,4834.08L14503,4834.08C14509.1,4834.08 14514.3,4835.06 14518.7,4837.02C14523.1,4838.98 14526.4,4841.8 14528.8,4845.47C14531.2,4849.14 14532.4,4853.5 14532.4,4858.56C14532.4,4863.57 14531.2,4867.89 14528.8,4871.52C14526.4,4875.15 14523.1,4877.93 14518.7,4879.86C14514.3,4881.8 14509.1,4882.77 14503,4882.77L14482.5,4882.77L14489.5,4875.97L14489.5,4901.61L14473.8,4901.61ZM14516.8,4901.61L14499.8,4877.07L14516.6,4877.07L14533.6,4901.61L14516.8,4901.61ZM14489.5,4877.66L14482.5,4870.31L14502.2,4870.31C14507,4870.31 14510.6,4869.27 14513,4867.2C14515.4,4865.12 14516.6,4862.24 14516.6,4858.56C14516.6,4854.83 14515.4,4851.94 14513,4849.89C14510.6,4847.83 14507,4846.8 14502.2,4846.8L14482.5,4846.8L14489.5,4839.39L14489.5,4877.66Z" style="fill-rule:nonzero;"/>
    </g>
    <g transform="matrix(1.63518,0,0,1.63518,-9136.19,-3068.59)">
        <path d="M14534,4901.61L14564.1,4834.08L14579.6,4834.08L14609.7,4901.61L14593.4,4901.61L14568.6,4842.03L14574.8,4842.03L14550.1,4901.61L14534,4901.61ZM14549.1,4887.16L14553.2,4875.3L14588,4875.3L14592.2,4887.16L14549.1,4887.16Z" style="fill-rule:nonzero;"/>
    </g>
    <g transform="matrix(1.63518,0,0,1.63518,-9136.19,-3068.59)">
        <path d="M14619.9,4901.61L14619.9,4846.84L14598.3,4846.84L14598.3,4834.08L14657.1,4834.08L14657.1,4846.84L14635.6,4846.84L14635.6,4901.61L14619.9,4901.61Z" style="fill-rule:nonzero;"/>
    </g>
    <g transform="matrix(1.63518,0,0,1.63518,-9136.19,-3068.59)">
        <path d="M14673.1,4861.25L14705.6,4861.25L14705.6,4873.4L14673.1,4873.4L14673.1,4861.25ZM14674.2,4889.03L14711,4889.03L14711,4901.6L14658.7,4901.6L14658.7,4834.07L14709.7,4834.07L14709.7,4846.65L14674.2,4846.65L14674.2,4889.03Z" style="fill-rule:nonzero;"/>
    </g>
    <g transform="matrix(1.63518,0,0,1.63518,-9136.19,-3068.59)">
        <path d="M14548.4,5168.16L14510.5,5086.01L14611.6,5086.01L14401.3,4902.74L14401.3,5180.8L14466.2,5104.97L14504,5187.12L14548.4,5168.16Z" style="fill:white;stroke:black;stroke-width:27.08px;stroke-miterlimit:1.5;"/>
    </g>
</svg>
