<?xml version="1.0" encoding="UTF-8" standalone="no"?>
<!DOCTYPE svg PUBLIC "-//W3C//DTD SVG 1.1//EN" "http://www.w3.org/Graphics/SVG/1.1/DTD/svg11.dtd">
<svg width="100%" height="100%" viewBox="0 0 2160 1621" version="1.1" xmlns="http://www.w3.org/2000/svg" xmlns:xlink="http://www.w3.org/1999/xlink" xml:space="preserve" xmlns:serif="http://www.serif.com/" style="fill-rule:evenodd;clip-rule:evenodd;stroke-linecap:round;stroke-linejoin:round;stroke-miterlimit:10;">
    <g transform="matrix(1,0,0,1,-2.34479e-13,-25.1737)">
        <g transform="matrix(-4.78142,2.98203,-2.98203,-4.78142,13629.6,7823.43)">
            <path d="M1072.67,2293.18L1200.13,2293.18" style="fill:none;fill-rule:nonzero;stroke:black;stroke-width:1.24px;"/>
        </g>
        <g transform="matrix(-4.76595,3.0067,-3.0067,-4.76595,12009.5,9641.72)">
            <path d="M900.837,2417.59L981.014,2417.59" style="fill:none;fill-rule:nonzero;stroke:black;stroke-width:1.24px;"/>
        </g>
        <g transform="matrix(4.77178,-2.99744,2.99744,4.77178,-11628,-7442.17)">
            <path d="M950.994,2491.9L1104.89,2491.9" style="fill:none;fill-rule:nonzero;stroke:black;stroke-width:1.24px;"/>
        </g>
        <g transform="matrix(4.55136,3.32259,-3.32259,4.55136,4493.31,-13802.8)">
            <path d="M1078.77,2494.91L1227.81,2494.91" style="fill:none;fill-rule:nonzero;stroke:black;stroke-width:1.24px;"/>
        </g>
        <g transform="matrix(-4.76437,-3.0092,3.0092,-4.76437,431.692,16160.4)">
            <path d="M1178.03,2417.88L1274.73,2417.88" style="fill:none;fill-rule:nonzero;stroke:black;stroke-width:1.24px;"/>
        </g>
        <g transform="matrix(5.63512,0,0,-5.63512,-5046.15,15349.3)">
            <path d="M970.905,2453.1C969.065,2446.45 965.696,2441.75 960.798,2438.98C955.9,2436.21 950.13,2435.75 943.486,2437.6C936.843,2439.46 930.217,2443.37 923.608,2449.34C917,2455.32 911.294,2462.56 906.491,2471.05C901.687,2479.55 898.43,2488.17 896.719,2496.92C895.008,2505.66 895.073,2513.36 896.913,2520C898.753,2526.65 902.122,2531.36 907.02,2534.12C911.917,2536.89 917.688,2537.35 924.331,2535.5C930.975,2533.65 937.601,2529.73 944.209,2523.76C950.818,2517.78 956.524,2510.55 961.327,2502.05C966.13,2493.55 969.388,2484.93 971.098,2476.19C972.809,2467.44 972.745,2459.75 970.905,2453.1" style="fill:none;fill-rule:nonzero;stroke:black;stroke-width:1.24px;"/>
        </g>
        <g transform="matrix(5.63512,0,0,-5.63512,-5046.15,15349.2)">
            <path d="M963.781,2457.29C962.691,2451.92 960.34,2448.21 956.729,2446.17C953.117,2444.13 948.728,2444.03 943.562,2445.86C938.396,2447.7 933.145,2451.23 927.809,2456.46C922.473,2461.68 917.767,2467.9 913.69,2475.11C909.614,2482.33 906.714,2489.57 904.989,2496.83C903.265,2504.1 902.947,2510.42 904.037,2515.79C905.127,2521.17 907.477,2524.87 911.089,2526.91C914.701,2528.96 919.09,2529.06 924.256,2527.22C929.422,2525.38 934.673,2521.85 940.009,2516.63C945.345,2511.4 950.051,2505.18 954.127,2497.97C958.204,2490.76 961.104,2483.52 962.828,2476.25C964.553,2468.99 964.87,2462.67 963.781,2457.29" style="fill:none;fill-rule:nonzero;stroke:black;stroke-width:1.24px;"/>
        </g>
        <g transform="matrix(5.63512,0,0,-5.63512,-5046.15,13307.7)">
            <path d="M1244.26,2256.22C1249.16,2258.98 1252.53,2263.69 1254.37,2270.34C1256.21,2276.98 1256.27,2284.68 1254.56,2293.42C1252.85,2302.17 1249.6,2310.79 1244.79,2319.29C1239.99,2327.78 1234.28,2335.02 1227.67,2341C1221.07,2346.97 1214.44,2350.89 1207.8,2352.74C1201.15,2354.59 1195.38,2354.13 1190.48,2351.36" style="fill:none;fill-rule:nonzero;stroke:black;stroke-width:1.24px;"/>
        </g>
        <g transform="matrix(5.63512,0,0,-5.63512,-5046.15,13271.1)">
            <path d="M970.369,2348.12C965.471,2350.89 959.701,2351.34 953.057,2349.49C946.414,2347.64 939.788,2343.73 933.179,2337.75C926.571,2331.78 920.865,2324.54 916.061,2316.04C911.258,2307.54 908.001,2298.92 906.29,2290.18C904.579,2281.44 904.644,2273.74 906.484,2267.09C908.324,2260.45 911.693,2255.74 916.591,2252.97" style="fill:none;fill-rule:nonzero;stroke:black;stroke-width:1.24px;"/>
        </g>
        <g transform="matrix(4.7513,-3.0298,3.0298,4.7513,-11163.1,-6896.29)">
            <path d="M1180.04,2373.33L1249.73,2373.33" style="fill:none;fill-rule:nonzero;stroke:black;stroke-width:1.24px;"/>
        </g>
        <g transform="matrix(-4.76455,-3.00891,3.00891,-4.76455,-107.102,15552.4)">
            <path d="M1136.13,2377.78L1189.63,2377.78" style="fill:none;fill-rule:nonzero;stroke:black;stroke-width:1.24px;"/>
        </g>
        <g transform="matrix(4.63892,-3.19922,3.19922,4.63892,-11671.5,-7114.42)">
            <path d="M970.171,2381.24L1035.61,2381.24" style="fill:none;fill-rule:nonzero;stroke:black;stroke-width:1.24px;"/>
        </g>
        <g transform="matrix(5.30421,-1.90261,1.90261,5.30421,-9212.84,-10081.1)">
            <path d="M920.088,2306.33C917.428,2311.92 915.906,2317.29 915.52,2322.46C915.01,2329.33 916.53,2334.95 920.088,2339.31L968.579,2398.76L992.041,2392.53" style="stroke:black;stroke-width:1.24px;"/>
        </g>
        <g transform="matrix(5.63512,0,0,-5.63512,-5046.15,13737.1)">
            <path d="M1254.37,2346.53C1256.21,2353.17 1256.27,2360.87 1254.56,2369.61C1252.85,2378.36 1250.24,2385.84 1246.73,2392.06L1140.26,2323.51L1185.5,2294.94L1244.26,2332.41C1249.16,2335.17 1252.53,2339.88 1254.37,2346.53" style="stroke:black;stroke-width:1.24px;"/>
        </g>
        <g transform="matrix(5.63512,0,0,-5.63512,-5046.15,15194)">
            <path d="M1203.37,2420.82C1201.53,2427.46 1201.47,2435.16 1203.18,2443.9C1203.84,2447.27 1204.72,2450.62 1205.84,2453.95L1081.32,2536.25L966.79,2463.15C968.708,2458.35 970.144,2453.51 971.098,2448.63C972.76,2440.13 972.747,2432.63 971.059,2426.12C971.009,2425.92 970.958,2425.73 970.905,2425.54C969.325,2419.83 966.618,2415.56 962.783,2412.71L1088.56,2491.72L1209.92,2409.29C1206.91,2412.08 1204.72,2415.93 1203.37,2420.82" style="stroke:black;stroke-width:1.24px;"/>
        </g>
        <g transform="matrix(-4.76447,-3.00905,3.00905,-4.76447,-1267.9,14244.7)">
            <path d="M960.139,2291.55L1092.56,2291.55" style="fill:none;fill-rule:nonzero;stroke:black;stroke-width:1.24px;"/>
        </g>
        <g transform="matrix(5.63512,0,0,-5.63512,-5046.15,15267.4)">
            <path d="M904.037,2501.27C903.102,2496.66 903.203,2491.35 904.342,2485.34L964.007,2444.03C964.813,2449.12 964.42,2455.03 962.828,2461.73C961.104,2469 958.204,2476.24 954.127,2483.45C950.051,2490.66 945.345,2496.88 940.009,2502.11C934.673,2507.33 929.422,2510.86 924.256,2512.7C919.09,2514.54 914.701,2514.44 911.089,2512.39C907.477,2510.35 905.127,2506.65 904.037,2501.27" style="stroke:black;stroke-width:1.24px;"/>
        </g>
        <g transform="matrix(5.63512,0,0,-5.63512,-5046.15,15402.5)">
            <path d="M1249.94,2540.22C1256.59,2542.07 1262.36,2541.61 1267.26,2538.84C1272.15,2536.07 1275.52,2531.36 1277.36,2524.72C1279.2,2518.07 1279.27,2510.38 1277.56,2501.63C1275.85,2492.89 1272.59,2484.27 1267.79,2475.77C1262.98,2467.27 1257.28,2460.04 1250.67,2454.06C1244.06,2448.08 1237.43,2444.17 1230.79,2442.32C1224.15,2440.47 1218.38,2440.93 1213.48,2443.69C1208.58,2446.46 1205.21,2451.17 1203.37,2457.82C1201.53,2464.46 1201.47,2472.16 1203.18,2480.9C1204.89,2489.65 1208.15,2498.27 1212.95,2506.76C1217.75,2515.26 1223.46,2522.5 1230.07,2528.47C1236.68,2534.45 1243.3,2538.36 1249.94,2540.22" style="fill:none;fill-rule:nonzero;stroke:black;stroke-width:1.24px;"/>
        </g>
        <g transform="matrix(5.63512,0,0,-5.63512,-5046.15,15402.5)">
            <path d="M1250.02,2531.96C1255.19,2533.79 1259.57,2533.69 1263.19,2531.65C1266.8,2529.61 1269.15,2525.9 1270.24,2520.53C1271.33,2515.15 1271.01,2508.83 1269.29,2501.57C1267.56,2494.3 1264.66,2487.06 1260.59,2479.85C1256.51,2472.64 1251.8,2466.42 1246.47,2461.19C1241.13,2455.97 1235.88,2452.44 1230.71,2450.6C1225.55,2448.76 1221.16,2448.86 1217.55,2450.9C1213.94,2452.95 1211.58,2456.65 1210.5,2462.03C1209.41,2467.4 1209.72,2473.72 1211.45,2480.99C1213.17,2488.25 1216.07,2495.49 1220.15,2502.71C1224.22,2509.92 1228.93,2516.14 1234.27,2521.36C1239.6,2526.59 1244.85,2530.12 1250.02,2531.96" style="fill:none;fill-rule:nonzero;stroke:black;stroke-width:1.24px;"/>
        </g>
        <g transform="matrix(5.63512,0,0,-5.63512,-5046.15,15402.5)">
            <path d="M1250.02,2531.96C1244.85,2530.12 1239.6,2526.59 1234.27,2521.36C1228.93,2516.14 1224.22,2509.92 1220.15,2502.71C1216.07,2495.49 1213.17,2488.25 1211.45,2480.99C1209.72,2473.72 1209.41,2467.4 1210.5,2462.03C1211.58,2456.65 1213.94,2452.95 1217.55,2450.9C1221.16,2448.86 1225.55,2448.76 1230.71,2450.6C1235.88,2452.44 1241.13,2455.97 1246.47,2461.19C1251.8,2466.42 1256.51,2472.64 1260.59,2479.85C1264.66,2487.06 1267.56,2494.3 1269.29,2501.57C1271.01,2508.83 1271.33,2515.15 1270.24,2520.53C1269.15,2525.9 1266.8,2529.61 1263.19,2531.65C1259.57,2533.69 1255.19,2533.79 1250.02,2531.96" style="stroke:black;stroke-width:1.24px;"/>
        </g>
    </g>
</svg>
